<svg width="1440" height="882" viewBox="0 0 1440 882" fill="none" xmlns="http://www.w3.org/2000/svg">
<g clip-path="url(#clip0_351_65836)">
<rect x="-82.8555" y="-82.9062" width="107.048" height="107.048" stroke="black" stroke-opacity="0.12" stroke-width="2.14095"/>
<rect x="24.1914" y="-82.9062" width="107.048" height="107.048" stroke="black" stroke-opacity="0.12" stroke-width="2.14095"/>
<rect x="131.238" y="-82.9062" width="107.048" height="107.048" stroke="black" stroke-opacity="0.12" stroke-width="2.14095"/>
<rect x="238.285" y="-82.9062" width="107.048" height="107.048" stroke="black" stroke-opacity="0.12" stroke-width="2.14095"/>
<rect x="345.332" y="-82.9062" width="107.048" height="107.048" stroke="black" stroke-opacity="0.12" stroke-width="2.14095"/>
<rect x="452.383" y="-82.9062" width="107.048" height="107.048" stroke="black" stroke-opacity="0.12" stroke-width="2.14095"/>
<rect x="559.43" y="-82.9062" width="107.048" height="107.048" stroke="black" stroke-opacity="0.12" stroke-width="2.14095"/>
<rect x="666.477" y="-82.9062" width="107.048" height="107.048" stroke="black" stroke-opacity="0.12" stroke-width="2.14095"/>
<rect x="773.523" y="-82.9062" width="107.048" height="107.048" stroke="black" stroke-opacity="0.12" stroke-width="2.14095"/>
<rect x="880.57" y="-82.9062" width="107.048" height="107.048" stroke="black" stroke-opacity="0.12" stroke-width="2.14095"/>
<rect x="987.617" y="-82.9062" width="107.048" height="107.048" stroke="black" stroke-opacity="0.12" stroke-width="2.14095"/>
<rect x="1094.67" y="-82.9062" width="107.048" height="107.048" stroke="black" stroke-opacity="0.12" stroke-width="2.14095"/>
<rect x="1201.71" y="-82.9062" width="107.048" height="107.048" stroke="black" stroke-opacity="0.12" stroke-width="2.14095"/>
<rect x="1308.76" y="-82.9062" width="107.048" height="107.048" fill="black" fill-opacity="0.12" stroke="black" stroke-opacity="0.12" stroke-width="2.14095"/>
<rect x="1415.81" y="-82.9062" width="107.048" height="107.048" stroke="black" stroke-opacity="0.12" stroke-width="2.14095"/>
<rect x="-82.8555" y="24.1407" width="107.048" height="107.048" stroke="black" stroke-opacity="0.12" stroke-width="2.14095"/>
<rect x="24.1914" y="24.1407" width="107.048" height="107.048" stroke="black" stroke-opacity="0.12" stroke-width="2.14095"/>
<rect x="131.238" y="24.1409" width="107.048" height="107.048" stroke="black" stroke-opacity="0.12" stroke-width="2.14095"/>
<rect x="238.285" y="24.1407" width="107.048" height="107.048" stroke="black" stroke-opacity="0.12" stroke-width="2.14095"/>
<rect x="345.332" y="24.1409" width="107.048" height="107.048" stroke="black" stroke-opacity="0.12" stroke-width="2.14095"/>
<rect x="452.383" y="24.1407" width="107.048" height="107.048" fill="black" fill-opacity="0.12" stroke="black" stroke-opacity="0.12" stroke-width="2.14095"/>
<rect x="559.43" y="24.1407" width="107.048" height="107.048" stroke="black" stroke-opacity="0.12" stroke-width="2.14095"/>
<rect x="666.477" y="24.1407" width="107.048" height="107.048" stroke="black" stroke-opacity="0.12" stroke-width="2.14095"/>
<rect x="773.523" y="24.1407" width="107.048" height="107.048" stroke="black" stroke-opacity="0.12" stroke-width="2.14095"/>
<rect x="880.57" y="24.1407" width="107.048" height="107.048" stroke="black" stroke-opacity="0.12" stroke-width="2.14095"/>
<rect x="987.617" y="24.1407" width="107.048" height="107.048" stroke="black" stroke-opacity="0.12" stroke-width="2.14095"/>
<rect x="1094.67" y="24.1407" width="107.048" height="107.048" stroke="black" stroke-opacity="0.12" stroke-width="2.14095"/>
<rect x="1201.71" y="24.1407" width="107.048" height="107.048" stroke="black" stroke-opacity="0.12" stroke-width="2.14095"/>
<rect x="1308.76" y="24.1407" width="107.048" height="107.048" stroke="black" stroke-opacity="0.12" stroke-width="2.14095"/>
<rect x="1415.81" y="24.1407" width="107.048" height="107.048" stroke="black" stroke-opacity="0.12" stroke-width="2.14095"/>
<rect x="-82.8555" y="131.188" width="107.048" height="107.048" fill="black" fill-opacity="0.12" stroke="black" stroke-opacity="0.12" stroke-width="2.14095"/>
<rect x="24.1914" y="131.188" width="107.048" height="107.048" stroke="black" stroke-opacity="0.12" stroke-width="2.14095"/>
<rect x="131.238" y="131.187" width="107.048" height="107.048" stroke="black" stroke-opacity="0.12" stroke-width="2.14095"/>
<rect x="238.285" y="131.188" width="107.048" height="107.048" stroke="black" stroke-opacity="0.12" stroke-width="2.14095"/>
<rect x="345.332" y="131.187" width="107.048" height="107.048" stroke="black" stroke-opacity="0.12" stroke-width="2.14095"/>
<rect x="452.383" y="131.188" width="107.048" height="107.048" stroke="black" stroke-opacity="0.12" stroke-width="2.14095"/>
<rect x="559.43" y="131.187" width="107.048" height="107.048" stroke="black" stroke-opacity="0.12" stroke-width="2.14095"/>
<rect x="666.477" y="131.187" width="107.048" height="107.048" stroke="black" stroke-opacity="0.12" stroke-width="2.14095"/>
<rect x="773.523" y="131.187" width="107.048" height="107.048" stroke="black" stroke-opacity="0.12" stroke-width="2.14095"/>
<rect x="880.57" y="131.187" width="107.048" height="107.048" fill="black" fill-opacity="0.12" stroke="black" stroke-opacity="0.12" stroke-width="2.14095"/>
<rect x="987.617" y="131.188" width="107.048" height="107.048" stroke="black" stroke-opacity="0.12" stroke-width="2.14095"/>
<rect x="1094.67" y="131.187" width="107.048" height="107.048" stroke="black" stroke-opacity="0.12" stroke-width="2.14095"/>
<rect x="1201.71" y="131.188" width="107.048" height="107.048" fill="black" fill-opacity="0.12" stroke="black" stroke-opacity="0.12" stroke-width="2.14095"/>
<rect x="1308.76" y="131.188" width="107.048" height="107.048" stroke="black" stroke-opacity="0.12" stroke-width="2.14095"/>
<rect x="1415.81" y="131.188" width="107.048" height="107.048" stroke="black" stroke-opacity="0.12" stroke-width="2.14095"/>
<rect x="-82.8555" y="238.234" width="107.048" height="107.048" stroke="black" stroke-opacity="0.12" stroke-width="2.14095"/>
<rect x="24.1914" y="238.234" width="107.048" height="107.048" stroke="black" stroke-opacity="0.12" stroke-width="2.14095"/>
<rect x="131.238" y="238.234" width="107.048" height="107.048" stroke="black" stroke-opacity="0.12" stroke-width="2.14095"/>
<rect x="238.285" y="238.234" width="107.048" height="107.048" fill="black" fill-opacity="0.12" stroke="black" stroke-opacity="0.12" stroke-width="2.14095"/>
<rect x="345.332" y="238.234" width="107.048" height="107.048" stroke="black" stroke-opacity="0.12" stroke-width="2.14095"/>
<rect x="452.383" y="238.234" width="107.048" height="107.048" stroke="black" stroke-opacity="0.12" stroke-width="2.14095"/>
<rect x="559.43" y="238.234" width="107.048" height="107.048" stroke="black" stroke-opacity="0.12" stroke-width="2.14095"/>
<rect x="666.477" y="238.234" width="107.048" height="107.048" stroke="black" stroke-opacity="0.12" stroke-width="2.14095"/>
<rect x="773.523" y="238.234" width="107.048" height="107.048" stroke="black" stroke-opacity="0.12" stroke-width="2.14095"/>
<rect x="880.57" y="238.234" width="107.048" height="107.048" stroke="black" stroke-opacity="0.12" stroke-width="2.14095"/>
<rect x="987.617" y="238.234" width="107.048" height="107.048" stroke="black" stroke-opacity="0.12" stroke-width="2.14095"/>
<rect x="1094.67" y="238.234" width="107.048" height="107.048" stroke="black" stroke-opacity="0.12" stroke-width="2.14095"/>
<rect x="1201.71" y="238.234" width="107.048" height="107.048" stroke="black" stroke-opacity="0.12" stroke-width="2.14095"/>
<rect x="1308.76" y="238.234" width="107.048" height="107.048" stroke="black" stroke-opacity="0.12" stroke-width="2.14095"/>
<rect x="1415.81" y="238.234" width="107.048" height="107.048" stroke="black" stroke-opacity="0.12" stroke-width="2.14095"/>
<rect x="-82.8555" y="345.289" width="107.048" height="107.048" stroke="black" stroke-opacity="0.12" stroke-width="2.14095"/>
<rect x="24.1914" y="345.289" width="107.048" height="107.048" stroke="black" stroke-opacity="0.12" stroke-width="2.14095"/>
<rect x="131.238" y="345.289" width="107.048" height="107.048" stroke="black" stroke-opacity="0.12" stroke-width="2.14095"/>
<rect x="238.285" y="345.289" width="107.048" height="107.048" stroke="black" stroke-opacity="0.12" stroke-width="2.14095"/>
<rect x="345.332" y="345.289" width="107.048" height="107.048" stroke="black" stroke-opacity="0.12" stroke-width="2.14095"/>
<rect x="452.383" y="345.289" width="107.048" height="107.048" stroke="black" stroke-opacity="0.12" stroke-width="2.14095"/>
<rect x="559.43" y="345.289" width="107.048" height="107.048" stroke="black" stroke-opacity="0.12" stroke-width="2.14095"/>
<rect x="666.477" y="345.289" width="107.048" height="107.048" stroke="black" stroke-opacity="0.12" stroke-width="2.14095"/>
<rect x="773.523" y="345.289" width="107.048" height="107.048" stroke="black" stroke-opacity="0.12" stroke-width="2.14095"/>
<rect x="880.57" y="345.289" width="107.048" height="107.048" stroke="black" stroke-opacity="0.12" stroke-width="2.14095"/>
<rect x="987.617" y="345.289" width="107.048" height="107.048" stroke="black" stroke-opacity="0.12" stroke-width="2.14095"/>
<rect x="1094.67" y="345.289" width="107.048" height="107.048" stroke="black" stroke-opacity="0.12" stroke-width="2.14095"/>
<rect x="1201.71" y="345.289" width="107.048" height="107.048" stroke="black" stroke-opacity="0.12" stroke-width="2.14095"/>
<rect x="1308.76" y="345.289" width="107.048" height="107.048" stroke="black" stroke-opacity="0.12" stroke-width="2.14095"/>
<rect x="1415.81" y="345.289" width="107.048" height="107.048" stroke="black" stroke-opacity="0.12" stroke-width="2.14095"/>
<rect x="-82.8555" y="452.336" width="107.048" height="107.048" stroke="black" stroke-opacity="0.12" stroke-width="2.14095"/>
<rect x="24.1914" y="452.336" width="107.048" height="107.048" stroke="black" stroke-opacity="0.12" stroke-width="2.14095"/>
<rect x="131.238" y="452.336" width="107.048" height="107.048" stroke="black" stroke-opacity="0.12" stroke-width="2.14095"/>
<rect x="238.285" y="452.336" width="107.048" height="107.048" stroke="black" stroke-opacity="0.12" stroke-width="2.14095"/>
<rect x="345.332" y="452.336" width="107.048" height="107.048" stroke="black" stroke-opacity="0.12" stroke-width="2.14095"/>
<rect x="452.383" y="452.336" width="107.048" height="107.048" fill="black" fill-opacity="0.12" stroke="black" stroke-opacity="0.12" stroke-width="2.14095"/>
<rect x="559.43" y="452.336" width="107.048" height="107.048" stroke="black" stroke-opacity="0.12" stroke-width="2.14095"/>
<rect x="666.477" y="452.336" width="107.048" height="107.048" stroke="black" stroke-opacity="0.12" stroke-width="2.14095"/>
<rect x="773.523" y="452.336" width="107.048" height="107.048" stroke="black" stroke-opacity="0.12" stroke-width="2.14095"/>
<rect x="880.57" y="452.336" width="107.048" height="107.048" stroke="black" stroke-opacity="0.12" stroke-width="2.14095"/>
<rect x="987.617" y="452.336" width="107.048" height="107.048" stroke="black" stroke-opacity="0.12" stroke-width="2.14095"/>
<rect x="1094.67" y="452.336" width="107.048" height="107.048" stroke="black" stroke-opacity="0.12" stroke-width="2.14095"/>
<rect x="1201.71" y="452.336" width="107.048" height="107.048" stroke="black" stroke-opacity="0.12" stroke-width="2.14095"/>
<rect x="1308.76" y="452.336" width="107.048" height="107.048" stroke="black" stroke-opacity="0.12" stroke-width="2.14095"/>
<rect x="1415.81" y="452.336" width="107.048" height="107.048" stroke="black" stroke-opacity="0.12" stroke-width="2.14095"/>
<rect x="-82.8555" y="559.383" width="107.048" height="107.048" stroke="black" stroke-opacity="0.12" stroke-width="2.14095"/>
<rect x="24.1914" y="559.383" width="107.048" height="107.048" fill="black" fill-opacity="0.12" stroke="black" stroke-opacity="0.12" stroke-width="2.14095"/>
<rect x="131.238" y="559.383" width="107.048" height="107.048" stroke="black" stroke-opacity="0.12" stroke-width="2.14095"/>
<rect x="238.285" y="559.383" width="107.048" height="107.048" stroke="black" stroke-opacity="0.12" stroke-width="2.14095"/>
<rect x="345.332" y="559.383" width="107.048" height="107.048" stroke="black" stroke-opacity="0.12" stroke-width="2.14095"/>
<rect x="452.383" y="559.383" width="107.048" height="107.048" stroke="black" stroke-opacity="0.12" stroke-width="2.14095"/>
<rect x="559.43" y="559.383" width="107.048" height="107.048" stroke="black" stroke-opacity="0.12" stroke-width="2.14095"/>
<rect x="666.477" y="559.383" width="107.048" height="107.048" stroke="black" stroke-opacity="0.12" stroke-width="2.14095"/>
<rect x="773.523" y="559.383" width="107.048" height="107.048" stroke="black" stroke-opacity="0.12" stroke-width="2.14095"/>
<rect x="880.57" y="559.383" width="107.048" height="107.048" stroke="black" stroke-opacity="0.12" stroke-width="2.14095"/>
<rect x="987.617" y="559.383" width="107.048" height="107.048" stroke="black" stroke-opacity="0.12" stroke-width="2.14095"/>
<rect x="1094.67" y="559.383" width="107.048" height="107.048" stroke="black" stroke-opacity="0.12" stroke-width="2.14095"/>
<rect x="1201.71" y="559.383" width="107.048" height="107.048" stroke="black" stroke-opacity="0.12" stroke-width="2.14095"/>
<rect x="1308.76" y="559.383" width="107.048" height="107.048" stroke="black" stroke-opacity="0.12" stroke-width="2.14095"/>
<rect x="1415.81" y="559.383" width="107.048" height="107.048" stroke="black" stroke-opacity="0.12" stroke-width="2.14095"/>
<rect x="-82.8555" y="666.43" width="107.048" height="107.048" stroke="black" stroke-opacity="0.12" stroke-width="2.14095"/>
<rect x="24.1914" y="666.43" width="107.048" height="107.048" stroke="black" stroke-opacity="0.12" stroke-width="2.14095"/>
<rect x="131.238" y="666.43" width="107.048" height="107.048" stroke="black" stroke-opacity="0.12" stroke-width="2.14095"/>
<rect x="238.285" y="666.43" width="107.048" height="107.048" stroke="black" stroke-opacity="0.12" stroke-width="2.14095"/>
<rect x="345.332" y="666.43" width="107.048" height="107.048" stroke="black" stroke-opacity="0.12" stroke-width="2.14095"/>
<rect x="452.383" y="666.43" width="107.048" height="107.048" stroke="black" stroke-opacity="0.12" stroke-width="2.14095"/>
<rect x="559.43" y="666.43" width="107.048" height="107.048" stroke="black" stroke-opacity="0.12" stroke-width="2.14095"/>
<rect x="666.477" y="666.43" width="107.048" height="107.048" stroke="black" stroke-opacity="0.12" stroke-width="2.14095"/>
<rect x="773.523" y="666.43" width="107.048" height="107.048" stroke="black" stroke-opacity="0.12" stroke-width="2.14095"/>
<rect x="880.57" y="666.43" width="107.048" height="107.048" stroke="black" stroke-opacity="0.12" stroke-width="2.14095"/>
<rect x="987.617" y="666.43" width="107.048" height="107.048" stroke="black" stroke-opacity="0.12" stroke-width="2.14095"/>
<rect x="1094.67" y="666.43" width="107.048" height="107.048" stroke="black" stroke-opacity="0.12" stroke-width="2.14095"/>
<rect x="1201.71" y="666.43" width="107.048" height="107.048" stroke="black" stroke-opacity="0.12" stroke-width="2.14095"/>
<rect x="1308.76" y="666.43" width="107.048" height="107.048" stroke="black" stroke-opacity="0.12" stroke-width="2.14095"/>
<rect x="1415.81" y="666.43" width="107.048" height="107.048" stroke="black" stroke-opacity="0.12" stroke-width="2.14095"/>
<rect x="-82.8555" y="773.477" width="107.048" height="107.048" stroke="black" stroke-opacity="0.12" stroke-width="2.14095"/>
<rect x="24.1914" y="773.477" width="107.048" height="107.048" stroke="black" stroke-opacity="0.12" stroke-width="2.14095"/>
<rect x="131.238" y="773.477" width="107.048" height="107.048" stroke="black" stroke-opacity="0.12" stroke-width="2.14095"/>
<rect x="238.285" y="773.477" width="107.048" height="107.048" stroke="black" stroke-opacity="0.12" stroke-width="2.14095"/>
<rect x="345.332" y="773.477" width="107.048" height="107.048" stroke="black" stroke-opacity="0.12" stroke-width="2.14095"/>
<rect x="452.383" y="773.477" width="107.048" height="107.048" stroke="black" stroke-opacity="0.12" stroke-width="2.14095"/>
<rect x="559.43" y="773.477" width="107.048" height="107.048" stroke="black" stroke-opacity="0.12" stroke-width="2.14095"/>
<rect x="666.477" y="773.477" width="107.048" height="107.048" stroke="black" stroke-opacity="0.12" stroke-width="2.14095"/>
<rect x="773.523" y="773.477" width="107.048" height="107.048" stroke="black" stroke-opacity="0.12" stroke-width="2.14095"/>
<rect x="880.57" y="773.477" width="107.048" height="107.048" stroke="black" stroke-opacity="0.12" stroke-width="2.14095"/>
<rect x="987.617" y="773.477" width="107.048" height="107.048" stroke="black" stroke-opacity="0.12" stroke-width="2.14095"/>
<rect x="1094.67" y="773.477" width="107.048" height="107.048" stroke="black" stroke-opacity="0.12" stroke-width="2.14095"/>
<rect x="1201.71" y="773.477" width="107.048" height="107.048" stroke="black" stroke-opacity="0.12" stroke-width="2.14095"/>
<rect x="1308.76" y="773.477" width="107.048" height="107.048" stroke="black" stroke-opacity="0.12" stroke-width="2.14095"/>
<rect x="1415.81" y="773.477" width="107.048" height="107.048" stroke="black" stroke-opacity="0.12" stroke-width="2.14095"/>
<rect x="-82.8555" y="880.524" width="107.048" height="107.048" stroke="black" stroke-opacity="0.12" stroke-width="2.14095"/>
<rect x="24.1914" y="880.524" width="107.048" height="107.048" stroke="black" stroke-opacity="0.12" stroke-width="2.14095"/>
<rect x="131.238" y="880.524" width="107.048" height="107.048" stroke="black" stroke-opacity="0.12" stroke-width="2.14095"/>
<rect x="238.285" y="880.524" width="107.048" height="107.048" stroke="black" stroke-opacity="0.12" stroke-width="2.14095"/>
<rect x="345.332" y="880.524" width="107.048" height="107.048" stroke="black" stroke-opacity="0.12" stroke-width="2.14095"/>
<rect x="452.383" y="880.524" width="107.048" height="107.048" stroke="black" stroke-opacity="0.12" stroke-width="2.14095"/>
<rect x="559.43" y="880.524" width="107.048" height="107.048" stroke="black" stroke-opacity="0.12" stroke-width="2.14095"/>
<rect x="666.477" y="880.524" width="107.048" height="107.048" stroke="black" stroke-opacity="0.12" stroke-width="2.14095"/>
<rect x="773.523" y="880.524" width="107.048" height="107.048" stroke="black" stroke-opacity="0.12" stroke-width="2.14095"/>
<rect x="880.57" y="880.524" width="107.048" height="107.048" stroke="black" stroke-opacity="0.12" stroke-width="2.14095"/>
<rect x="987.617" y="880.524" width="107.048" height="107.048" stroke="black" stroke-opacity="0.12" stroke-width="2.14095"/>
<rect x="1094.67" y="880.524" width="107.048" height="107.048" stroke="black" stroke-opacity="0.12" stroke-width="2.14095"/>
<rect x="1201.71" y="880.524" width="107.048" height="107.048" stroke="black" stroke-opacity="0.12" stroke-width="2.14095"/>
<rect x="1308.76" y="880.524" width="107.048" height="107.048" stroke="black" stroke-opacity="0.12" stroke-width="2.14095"/>
<rect x="1415.81" y="880.524" width="107.048" height="107.048" stroke="black" stroke-opacity="0.12" stroke-width="2.14095"/>
</g>
<defs>
<clipPath id="clip0_351_65836">
<rect width="2248" height="1438.72" fill="white" transform="translate(-404 -297)"/>
</clipPath>
</defs>
</svg>
