<svg width="118" height="118" viewBox="0 0 118 118" fill="none" xmlns="http://www.w3.org/2000/svg">
<circle cx="59" cy="59" r="59" fill="#3365E3" fill-opacity="0.06"/>
<circle cx="59.0001" cy="59.2943" r="35.8997" fill="#EBF0FC"/>
<circle cx="59" cy="59.2937" r="39.9814" fill="#EBF0FC" stroke="white" stroke-width="2.22634"/>
<path d="M64.2249 44.2411V51.2078H61.4749V44.2411C61.4749 43.7461 61.0349 43.5078 60.7416 43.5078C60.6499 43.5078 60.5583 43.5261 60.4666 43.5628L45.9283 49.0445C44.9566 49.4111 44.3333 50.3278 44.3333 51.3728V52.6011C42.6649 53.8478 41.5833 55.8461 41.5833 58.1011V51.3728C41.5833 49.1911 42.9216 47.2478 44.9566 46.4778L59.5133 40.9778C59.9166 40.8311 60.3383 40.7578 60.7416 40.7578C62.5749 40.7578 64.2249 42.2428 64.2249 44.2411Z" fill="#3365E3"/>
<path d="M76.4166 63.5827V65.416C76.4166 65.911 76.0316 66.3143 75.5183 66.3327H72.8416C71.8699 66.3327 70.9899 65.6177 70.9166 64.6643C70.8616 64.096 71.0816 63.5643 71.4483 63.1977C71.7783 62.8493 72.2366 62.666 72.7316 62.666H75.4999C76.0316 62.6843 76.4166 63.0877 76.4166 63.5827Z" fill="#3365E3"/>
<path d="M46.1666 64.5C44.4433 64.5 42.8483 65.105 41.5833 66.1133C39.8966 67.4517 38.8333 69.5233 38.8333 71.8333C38.8333 73.2083 39.2183 74.51 39.8966 75.61C41.1616 77.7367 43.4899 79.1667 46.1666 79.1667C48.0183 79.1667 49.7049 78.4883 50.9883 77.3333C51.5566 76.8567 52.0516 76.27 52.4366 75.61C53.1149 74.51 53.4999 73.2083 53.4999 71.8333C53.4999 67.7817 50.2183 64.5 46.1666 64.5ZM43.2699 70.8433C42.7383 70.3117 42.7383 69.4317 43.2699 68.9C43.8199 68.3683 44.6816 68.3683 45.2316 68.9L46.1849 69.8717L47.1016 68.9367C47.6516 68.405 48.5133 68.405 49.0633 68.9367C49.5949 69.4867 49.5949 70.3483 49.0633 70.8983L48.1283 71.815L49.0999 72.7683C49.6316 73.3183 49.6316 74.18 49.0999 74.73C48.8249 74.9867 48.4766 75.115 48.1283 75.115C47.7799 75.115 47.4316 74.9867 47.1566 74.73L46.1849 73.7583L45.1766 74.7667C44.9016 75.0417 44.5533 75.17 44.2049 75.17C43.8566 75.17 43.5083 75.0417 43.2333 74.7667C42.7016 74.235 42.7016 73.355 43.2333 72.8233L44.2416 71.815L43.2699 70.8433Z" fill="#3365E3"/>
<path d="M72.7132 60.7423H74.5833C75.5916 60.7423 76.4166 59.9173 76.4166 58.909V58.1023C76.4166 54.3073 73.3183 51.209 69.5233 51.209H48.4766C46.9183 51.209 45.4883 51.7223 44.3333 52.6023C42.6649 53.849 41.5833 55.8473 41.5833 58.1023V61.3657C41.5833 62.0623 42.3166 62.5023 42.9766 62.2823C44.0033 61.934 45.0849 61.7507 46.1666 61.7507C51.7216 61.7507 56.2499 66.279 56.2499 71.834C56.2499 73.154 55.9016 74.6023 55.3516 75.8857C55.0583 76.5457 55.5166 77.334 56.2316 77.334H69.5233C73.3183 77.334 76.4166 74.2357 76.4166 70.4407V70.0923C76.4166 69.084 75.5916 68.259 74.5833 68.259H72.9882C71.2282 68.259 69.5416 67.1773 69.0833 65.4723C68.7166 64.079 69.1566 62.7223 70.0733 61.8423C70.7516 61.1457 71.6866 60.7423 72.7132 60.7423ZM62.6666 60.3757H53.4999C52.7483 60.3757 52.1249 59.7523 52.1249 59.0007C52.1249 58.249 52.7483 57.6257 53.4999 57.6257H62.6666C63.4183 57.6257 64.0416 58.249 64.0416 59.0007C64.0416 59.7523 63.4183 60.3757 62.6666 60.3757Z" fill="#3365E3"/>
</svg>
