<svg width="202" height="201" viewBox="0 0 202 201" fill="none" xmlns="http://www.w3.org/2000/svg">
<circle cx="101" cy="100.5" r="100.5" fill="#3365E3" fill-opacity="0.06"/>
<circle cx="101" cy="100.5" r="75.9482" fill="#EFF2FF" stroke="white" stroke-width="4.22913"/>
<mask id="mask0_78_37956" style="mask-type:alpha" maskUnits="userSpaceOnUse" x="27" y="27" width="148" height="147">
<circle cx="101" cy="100.5" r="73.4812" fill="white"/>
</mask>
<g mask="url(#mask0_78_37956)">
<path d="M207.893 190.193L213.625 190.193L213.625 140.197L218.182 140.197L218.182 134.465L204.549 134.465L182.413 86.1513L173.948 82.5017L204.31 52.1397L218.182 52.1397L218.182 49.2735L204.587 49.2735L204.587 13.9243L198.855 13.9243L198.855 18.9401L86.7213 18.9401L86.7213 48.7576L66.9927 40.1591L24.3444 40.1591L24.3444 13.9243L21.4782 13.9243L21.4782 40.0445L10.1951 40.0445L10.1951 86.8583L-31.0775 86.8583L-31.0775 13.8574L-36.8098 13.8574L-36.8098 86.9156L-85.6108 86.9156L-85.6108 92.6479L10.1951 92.6479L10.1951 108.823L-21.0555 108.823L-21.0555 117.612L-18.1894 117.612L-18.1894 111.689L10.1951 111.689L10.1951 126.602L-30.8864 165.372L-85.5917 165.372L-85.5917 171.104L-28.6317 171.104L-9.18006 152.761L28.2519 190.193L36.3535 190.193L-5.01461 148.824L15.9274 129.077L15.9274 70.6263L55.2224 106.768L55.2224 190.097L58.0885 190.097L58.0885 109.405L94.5937 142.987L94.5937 190.193L100.326 190.193L100.326 170.607L207.893 170.607L207.893 190.193ZM92.4536 24.6055L152.557 24.6055L152.557 48.4901L155.423 48.4901L155.423 24.6055L198.855 24.6055L198.855 49.4933L168.005 80.3808L92.5301 50.4008L92.4536 24.6055ZM15.9274 62.8208L15.9274 45.7959L65.7793 45.7959L118.507 66.4704L94.6224 123.927L94.6224 135.191L15.9274 62.8208ZM100.326 164.875L100.326 125.217L123.513 68.3048C125.768 69.1646 177.97 90.1257 177.97 90.1257L192.301 121.348L148.745 164.875L100.326 164.875ZM152.796 164.875L193.505 124.176L200.871 140.245L207.893 140.245L207.893 164.875L152.796 164.875Z" fill="white"/>
<path d="M32.0924 50.707L65.1296 50.707L87.6862 59.9265L79.3552 76.7508L79.3552 115.988L32.0924 71.993L32.0924 50.707Z" fill="url(#paint0_linear_78_37956)"/>
<path opacity="0.3" d="M165.445 142.939L156.025 152.761L145.649 140.857L136.325 140.857L147.025 119.857L165.445 142.939Z" fill="#A0AFFF"/>
<path opacity="0.4" d="M94.2821 117.255C94.2821 121.55 97.7639 125.032 102.059 125.032C106.354 125.032 109.836 121.55 109.836 117.255C109.836 112.96 106.354 109.479 102.059 109.479C97.7639 109.479 94.2821 112.96 94.2821 117.255Z" fill="#A0AFFF"/>
<path d="M102.059 121.074C101.304 121.074 100.566 120.85 99.9376 120.43C99.3097 120.01 98.8203 119.414 98.5312 118.716C98.2422 118.019 98.1666 117.251 98.314 116.51C98.4613 115.769 98.825 115.089 99.359 114.555C99.893 114.021 100.573 113.657 101.314 113.51C102.055 113.363 102.823 113.438 103.52 113.727C104.218 114.016 104.814 114.506 105.234 115.134C105.654 115.762 105.878 116.5 105.878 117.255C105.874 118.267 105.47 119.236 104.755 119.951C104.04 120.666 103.071 121.07 102.059 121.074Z" fill="#A0AFFF"/>
<path d="M168.434 83.643C168.435 83.2631 168.586 82.8988 168.855 82.6303C169.124 82.3633 169.488 82.2124 169.868 82.21C170.247 82.2103 170.612 82.3615 170.88 82.6303C171.137 82.9048 171.281 83.2669 171.281 83.643C171.281 84.0192 171.137 84.3813 170.88 84.6558C170.612 84.9246 170.247 85.0758 169.868 85.0761C169.487 85.0761 169.123 84.9251 168.854 84.6564C168.585 84.3876 168.434 84.0231 168.434 83.643Z" fill="#A0AFFF"/>
<path d="M163.506 81.4888C163.505 81.3002 163.541 81.1133 163.612 80.9389C163.684 80.7644 163.789 80.6059 163.923 80.4726C164.056 80.3393 164.215 80.2338 164.389 80.1622C164.563 80.0906 164.75 80.0544 164.939 80.0557C165.034 80.0557 165.13 80.0557 165.225 80.0557C165.317 80.0756 165.407 80.1044 165.493 80.1417C165.581 80.1767 165.664 80.2216 165.741 80.2754C165.819 80.3273 165.892 80.3848 165.961 80.4474C166.214 80.7239 166.355 81.0852 166.355 81.4601C166.355 81.835 166.214 82.1963 165.961 82.4728C165.895 82.5411 165.821 82.602 165.741 82.6543C165.664 82.7082 165.581 82.7531 165.493 82.7881C165.318 82.8651 165.13 82.9042 164.939 82.9028C164.75 82.9013 164.563 82.8626 164.39 82.7888C164.216 82.7151 164.058 82.6077 163.926 82.4728C163.666 82.2103 163.516 81.8583 163.506 81.4888Z" fill="#A0AFFF"/>
<path d="M17.7812 41.5061C18.1613 41.5061 18.5258 41.6571 18.7945 41.9259C19.0633 42.1946 19.2143 42.5591 19.2143 42.9392C19.2143 43.3193 19.0633 43.6838 18.7945 43.9525C18.5258 44.2213 18.1613 44.3723 17.7812 44.3723C17.4011 44.3723 17.0366 44.2213 16.7679 43.9525C16.4991 43.6838 16.3481 43.3193 16.3481 42.9392C16.3481 42.5591 16.4991 42.1946 16.7679 41.9259C17.0366 41.6571 17.4011 41.5061 17.7812 41.5061ZM22.6059 41.5061C22.9859 41.5061 23.3505 41.6571 23.6192 41.9259C23.888 42.1946 24.0389 42.5591 24.0389 42.9392C24.0389 43.3193 23.888 43.6838 23.6192 43.9525C23.3505 44.2213 22.9859 44.3723 22.6059 44.3723C22.2258 44.3723 21.8613 44.2213 21.5925 43.9525C21.3238 43.6838 21.1728 43.3193 21.1728 42.9392C21.1728 42.5591 21.3238 42.1946 21.5925 41.9259C21.8613 41.6571 22.2258 41.5061 22.6059 41.5061ZM27.4305 41.5061C27.8106 41.5061 28.1751 41.6571 28.4439 41.9259C28.7126 42.1946 28.8636 42.5591 28.8636 42.9392C28.8636 43.3193 28.7126 43.6838 28.4439 43.9525C28.1751 44.2213 27.8106 44.3723 27.4305 44.3723C27.0505 44.3723 26.686 44.2213 26.4172 43.9525C26.1485 43.6838 25.9975 43.3193 25.9975 42.9392C25.9975 42.5591 26.1485 42.1946 26.4172 41.9259C26.686 41.6571 27.0505 41.5061 27.4305 41.5061ZM32.2552 41.5061C32.6353 41.5061 32.9998 41.6571 33.2686 41.9259C33.5374 42.1946 33.6883 42.5591 33.6883 42.9392C33.6883 43.3193 33.5374 43.6838 33.2686 43.9525C32.9998 44.2213 32.6353 44.3723 32.2552 44.3723C31.8752 44.3723 31.5107 44.2213 31.2419 43.9525C30.9731 43.6838 30.8222 43.3193 30.8222 42.9392C30.8222 42.5591 30.9731 42.1946 31.2419 41.9259C31.5107 41.6571 31.8752 41.5061 32.2552 41.5061ZM37.0322 41.5061C37.4122 41.5061 37.7768 41.6571 38.0455 41.9259C38.3143 42.1946 38.4652 42.5591 38.4652 42.9392C38.4652 43.3193 38.3143 43.6838 38.0455 43.9525C37.7768 44.2213 37.4122 44.3723 37.0322 44.3723C36.6521 44.3723 36.2876 44.2213 36.0188 43.9525C35.7501 43.6838 35.5991 43.3193 35.5991 42.9392C35.5987 42.7435 35.6384 42.5499 35.7158 42.3702C35.7931 42.1904 35.9064 42.0285 36.0488 41.8942C36.1911 41.7599 36.3594 41.6562 36.5433 41.5895C36.7272 41.5228 36.9229 41.4944 37.1181 41.5061L37.0322 41.5061ZM41.8568 41.5061C42.2369 41.5061 42.6014 41.6571 42.8702 41.9259C43.139 42.1946 43.2899 42.5591 43.2899 42.9392C43.2899 43.3193 43.139 43.6838 42.8702 43.9525C42.6014 44.2213 42.2369 44.3723 41.8568 44.3723C41.4768 44.3723 41.1123 44.2213 40.8435 43.9525C40.5748 43.6838 40.4238 43.3193 40.4238 42.9392C40.4237 42.7477 40.462 42.5582 40.5364 42.3818C40.6108 42.2054 40.7198 42.0457 40.8569 41.9121C40.9941 41.7785 41.1566 41.6738 41.3349 41.604C41.5132 41.5343 41.7037 41.501 41.8951 41.5061L41.8568 41.5061ZM46.6816 41.5061C47.0616 41.5061 47.4261 41.6571 47.6949 41.9259C47.9636 42.1946 48.1146 42.5591 48.1146 42.9392C48.1146 43.3193 47.9636 43.6838 47.6949 43.9525C47.4261 44.2213 47.0616 44.3723 46.6816 44.3723C46.3015 44.3723 45.937 44.2213 45.6682 43.9525C45.3995 43.6838 45.2485 43.3193 45.2485 42.9392C45.2484 42.7469 45.287 42.5566 45.362 42.3795C45.4369 42.2025 45.5468 42.0423 45.6849 41.9086C45.8231 41.7749 45.9868 41.6703 46.1662 41.6012C46.3456 41.532 46.5371 41.4997 46.7293 41.5061L46.6816 41.5061ZM51.5062 41.5061C51.8872 41.5061 52.2527 41.6568 52.523 41.9253C52.7932 42.1938 52.9464 42.5582 52.9489 42.9392C52.9464 43.3201 52.7932 43.6846 52.523 43.9531C52.2527 44.2216 51.8872 44.3723 51.5062 44.3723C51.1262 44.3723 50.7616 44.2213 50.4929 43.9525C50.2241 43.6838 50.0732 43.3193 50.0732 42.9392C50.0731 42.7469 50.1116 42.5566 50.1866 42.3795C50.2616 42.2025 50.3715 42.0423 50.5097 41.9086C50.6478 41.7749 50.8115 41.6703 50.9909 41.6012C51.1703 41.532 51.3618 41.4997 51.554 41.5061L51.5062 41.5061ZM56.3405 41.5061C56.7206 41.5061 57.0851 41.6571 57.3538 41.9259C57.6226 42.1946 57.7736 42.5591 57.7736 42.9392C57.7736 43.3193 57.6226 43.6838 57.3538 43.9525C57.0851 44.2213 56.7206 44.3723 56.3405 44.3723C55.9604 44.3723 55.5959 44.2213 55.3271 43.9525C55.0584 43.6838 54.9074 43.3193 54.9074 42.9392C54.9073 42.7469 54.9459 42.5566 55.0209 42.3795C55.0959 42.2025 55.2057 42.0423 55.3439 41.9086C55.4821 41.7749 55.6457 41.6703 55.8251 41.6012C56.0046 41.532 56.1961 41.4997 56.3883 41.5061L56.3405 41.5061ZM61.1652 41.5061C61.5452 41.5061 61.9097 41.6571 62.1785 41.9259C62.4473 42.1946 62.5983 42.5591 62.5983 42.9392C62.5983 43.3193 62.4473 43.6838 62.1785 43.9525C61.9097 44.2213 61.5452 44.3723 61.1652 44.3723C60.7851 44.3723 60.4206 44.2213 60.1518 43.9525C59.8831 43.6838 59.7321 43.3193 59.7321 42.9392C59.732 42.7469 59.7706 42.5566 59.8456 42.3795C59.9205 42.2025 60.0304 42.0423 60.1686 41.9086C60.3067 41.7749 60.4704 41.6703 60.6498 41.6012C60.8293 41.532 61.0208 41.4997 61.2129 41.5061L61.1652 41.5061ZM65.9421 41.5061C66.3222 41.5061 66.6867 41.6571 66.9554 41.9259C67.2242 42.1946 67.3752 42.5591 67.3752 42.9392C67.3752 43.3193 67.2242 43.6838 66.9554 43.9525C66.6867 44.2213 66.3222 44.3723 65.9421 44.3723C65.562 44.3723 65.1975 44.2213 64.9287 43.9525C64.66 43.6838 64.509 43.3193 64.509 42.9392C64.5086 42.7427 64.5485 42.5482 64.6265 42.3678C64.7044 42.1874 64.8186 42.0249 64.9619 41.8905C65.1053 41.7561 65.2748 41.6526 65.4598 41.5865C65.6449 41.5204 65.8415 41.493 66.0376 41.5061L65.9421 41.5061ZM69.1235 44.0761C69.2621 43.723 69.535 43.4393 69.8824 43.287C70.2298 43.1348 70.6234 43.1265 70.977 43.264C71.3307 43.4046 71.6146 43.6793 71.7667 44.0283C71.9189 44.3772 71.9269 44.7722 71.789 45.127C71.6505 45.4801 71.3776 45.7639 71.0301 45.9161C70.6827 46.0683 70.2891 46.0766 69.9356 45.9391C69.6591 45.8399 69.4195 45.6587 69.2488 45.4197C69.078 45.1807 68.9844 44.8953 68.9802 44.6016C69.0244 44.4124 69.1055 44.2338 69.2191 44.0761L69.1235 44.0761ZM73.6138 45.834C73.7524 45.4809 74.0253 45.1972 74.3727 45.045C74.7202 44.8927 75.1138 44.8845 75.4673 45.0219C75.6437 45.0884 75.805 45.1895 75.9418 45.3193C76.0786 45.4491 76.188 45.6049 76.2637 45.7776C76.3394 45.9503 76.3797 46.1364 76.3824 46.3249C76.3851 46.5134 76.35 46.7006 76.2793 46.8754C76.2128 47.0518 76.1117 47.2132 75.982 47.3499C75.8522 47.4867 75.6964 47.5962 75.5237 47.6718C75.351 47.7475 75.1649 47.7879 74.9763 47.7905C74.7878 47.7932 74.6007 47.7582 74.4259 47.6874C74.1583 47.5834 73.9285 47.4009 73.7665 47.164C73.6046 46.927 73.518 46.6465 73.5183 46.3595C73.5473 46.1736 73.6122 45.9951 73.7093 45.834L73.6138 45.834ZM78.1137 47.5919C78.2523 47.2388 78.5252 46.9551 78.8726 46.8029C79.22 46.6506 79.6136 46.6424 79.9671 46.7799C80.3202 46.9184 80.604 47.1913 80.7562 47.5388C80.9084 47.8862 80.9167 48.2798 80.7792 48.6333C80.7116 48.8089 80.6099 48.9694 80.4799 49.1054C80.3499 49.2415 80.1942 49.3505 80.0219 49.426C79.8495 49.5015 79.6639 49.5421 79.4758 49.5454C79.2876 49.5487 79.1007 49.5147 78.9258 49.4454C78.6485 49.3503 78.4077 49.1715 78.2365 48.9336C78.0654 48.6957 77.9724 48.4105 77.9704 48.1174C78.0106 47.9286 78.0886 47.7498 78.1997 47.5919L78.1137 47.5919ZM82.604 49.3498C82.7425 48.9967 83.0155 48.713 83.3629 48.5608C83.7103 48.4085 84.1039 48.4003 84.4574 48.5378C84.6331 48.6054 84.7937 48.7071 84.9301 48.8369C85.0665 48.9667 85.176 49.1221 85.2523 49.2942C85.3286 49.4663 85.3702 49.6518 85.3748 49.84C85.3794 50.0283 85.3469 50.2156 85.2791 50.3912C85.1385 50.745 84.8638 51.0288 84.5148 51.1809C84.1658 51.3331 83.7709 51.3411 83.416 51.2033C83.1485 51.0992 82.9187 50.9167 82.7567 50.6798C82.5947 50.4428 82.5082 50.1623 82.5084 49.8753C82.5368 49.6892 82.6017 49.5106 82.6995 49.3498L82.604 49.3498ZM87.0943 51.1077C87.1636 50.9268 87.2686 50.7616 87.4031 50.6221C87.5377 50.4827 87.6989 50.3717 87.8772 50.2959C88.0556 50.2202 88.2473 50.1811 88.4411 50.181C88.6349 50.181 88.8267 50.22 89.005 50.2957C89.3581 50.4342 89.6419 50.7071 89.7941 51.0546C89.9463 51.402 89.9546 51.7956 89.8171 52.1491C89.6786 52.5022 89.4056 52.7859 89.0582 52.9382C88.7108 53.0904 88.3172 53.0986 87.9637 52.9612C87.6864 52.8632 87.4461 52.6823 87.2752 52.443C87.1042 52.2037 87.0111 51.9177 87.0083 51.6236C87.0344 51.4414 87.0961 51.2662 87.1898 51.1077L87.0943 51.1077ZM91.5941 52.8656C91.6618 52.69 91.7635 52.5293 91.8933 52.3929C92.0231 52.2565 92.1785 52.1471 92.3506 52.0708C92.5227 51.9945 92.7082 51.9528 92.8964 51.9482C93.0847 51.9436 93.2719 51.9762 93.4476 52.044C93.6285 52.1133 93.7937 52.2184 93.9332 52.3529C94.0726 52.4874 94.1836 52.6486 94.2593 52.827C94.3351 53.0053 94.3742 53.1971 94.3743 53.3908C94.3743 53.5846 94.3353 53.7764 94.2597 53.9548C94.1211 54.3079 93.8482 54.5916 93.5008 54.7438C93.1533 54.8961 92.7597 54.9043 92.4062 54.7668C92.1379 54.6611 91.9078 54.4769 91.7458 54.2382C91.5839 53.9996 91.4977 53.7177 91.4986 53.4293C91.5213 53.2299 91.5864 53.0377 91.6897 52.8656L91.5941 52.8656ZM96.094 54.614C96.2326 54.2609 96.5055 53.9772 96.8529 53.8249C97.2003 53.6727 97.5939 53.6644 97.9474 53.8019C98.3012 53.9425 98.5851 54.2172 98.7372 54.5661C98.8893 54.9151 98.8973 55.3101 98.7595 55.6649C98.6209 56.018 98.348 56.3017 98.0006 56.454C97.6532 56.6062 97.2596 56.6145 96.9061 56.477C96.6288 56.379 96.3885 56.1981 96.2176 55.9588C96.0466 55.7195 95.9535 55.4335 95.9507 55.1395C95.9896 54.9485 96.0712 54.7688 96.1895 54.614L96.094 54.614ZM100.584 56.3719C100.723 56.0188 100.996 55.7351 101.343 55.5828C101.691 55.4306 102.084 55.4223 102.438 55.5598C102.613 55.6274 102.774 55.7291 102.91 55.8591C103.046 55.9891 103.155 56.1448 103.23 56.3171C103.306 56.4895 103.347 56.6751 103.35 56.8633C103.353 57.0514 103.319 57.2383 103.25 57.4132C103.182 57.5889 103.08 57.7496 102.951 57.886C102.821 58.0223 102.665 58.1318 102.493 58.2081C102.321 58.2844 102.136 58.3261 101.948 58.3307C101.759 58.3353 101.572 58.3027 101.396 58.2349C101.129 58.1281 100.899 57.9436 100.738 57.7052C100.576 57.4668 100.489 57.1854 100.489 56.8974C100.518 56.7115 100.583 56.533 100.68 56.3719L100.584 56.3719ZM105.075 58.1298C105.144 57.9488 105.249 57.7837 105.383 57.6442C105.518 57.5048 105.679 57.3938 105.858 57.318C106.036 57.2422 106.228 57.2031 106.421 57.2031C106.615 57.203 106.807 57.242 106.985 57.3177C107.338 57.4563 107.622 57.7292 107.774 58.0766C107.927 58.4241 107.935 58.8176 107.797 59.1712C107.73 59.3479 107.628 59.5095 107.497 59.6463C107.367 59.7832 107.21 59.8927 107.036 59.9683C106.863 60.0439 106.676 60.0841 106.487 60.0867C106.298 60.0893 106.11 60.0541 105.934 59.9832C105.658 59.887 105.418 59.7078 105.247 59.4702C105.076 59.2326 104.982 58.948 104.979 58.6553C105.007 58.4692 105.072 58.2906 105.17 58.1298L105.075 58.1298ZM109.574 59.8877C109.713 59.5346 109.986 59.2509 110.333 59.0986C110.681 58.9464 111.074 58.9382 111.428 59.0756C111.781 59.2142 112.065 59.4871 112.217 59.8345C112.369 60.182 112.377 60.5756 112.24 60.9291C112.101 61.2822 111.829 61.5659 111.481 61.7181C111.134 61.8704 110.74 61.8786 110.387 61.7411C110.118 61.6354 109.888 61.4512 109.726 61.2126C109.564 60.9739 109.478 60.692 109.479 60.4036C109.508 60.2207 109.573 60.0454 109.67 59.8877L109.574 59.8877ZM114.065 61.6456C114.134 61.4647 114.239 61.2995 114.374 61.1601C114.508 61.0206 114.669 60.9096 114.848 60.8338C115.026 60.758 115.218 60.719 115.412 60.7189C115.605 60.7188 115.797 60.7578 115.976 60.8335C116.329 60.9721 116.612 61.245 116.765 61.5924C116.917 61.9399 116.925 62.3335 116.788 62.687C116.649 63.0401 116.376 63.3238 116.029 63.476C115.681 63.6283 115.288 63.6366 114.934 63.4991C114.657 63.4011 114.417 63.2202 114.246 62.9809C114.075 62.7416 113.982 62.4555 113.979 62.1615C114.011 61.9958 114.072 61.8373 114.16 61.6934L114.065 61.6456ZM118.565 63.4035C118.631 63.2271 118.732 63.0657 118.862 62.929C118.992 62.7922 119.148 62.6827 119.32 62.6071C119.493 62.5314 119.679 62.4911 119.868 62.4884C120.056 62.4857 120.243 62.5207 120.418 62.5914C120.594 62.659 120.754 62.7607 120.89 62.8907C121.026 63.0207 121.135 63.1764 121.211 63.3487C121.286 63.5211 121.327 63.7067 121.33 63.8949C121.334 64.083 121.3 64.27 121.23 64.4449C121.092 64.798 120.819 65.0817 120.471 65.2339C120.124 65.3862 119.73 65.3945 119.377 65.257C119.108 65.1512 118.878 64.967 118.716 64.7284C118.554 64.4897 118.468 64.2078 118.469 63.9194C118.498 63.7365 118.563 63.5612 118.66 63.4035L118.565 63.4035ZM123.055 65.1519C123.195 64.7981 123.47 64.5142 123.819 64.3621C124.168 64.21 124.563 64.202 124.918 64.3398C125.099 64.4091 125.264 64.5141 125.403 64.6487C125.543 64.7832 125.654 64.9444 125.73 65.1227C125.805 65.3011 125.845 65.4928 125.845 65.6866C125.845 65.8804 125.806 66.0722 125.73 66.2505C125.589 66.6043 125.315 66.8882 124.966 67.0403C124.617 67.1924 124.222 67.2005 123.867 67.0626C123.59 66.9646 123.349 66.7837 123.178 66.5444C123.008 66.3052 122.914 66.0191 122.912 65.7251C122.934 65.5227 123 65.3274 123.103 65.1519L123.055 65.1519ZM127.555 66.9098C127.693 66.5567 127.966 66.2729 128.314 66.1207C128.661 65.9685 129.055 65.9602 129.408 66.0977C129.761 66.2363 130.045 66.5092 130.197 66.8566C130.349 67.204 130.358 67.5976 130.22 67.9511C130.154 68.1276 130.053 68.2889 129.923 68.4257C129.793 68.5625 129.637 68.6719 129.465 68.7476C129.292 68.8233 129.106 68.8636 128.917 68.8663C128.729 68.869 128.542 68.8339 128.367 68.7632C128.09 68.667 127.85 68.4878 127.679 68.2502C127.508 68.0125 127.415 67.728 127.411 67.4352C127.455 67.2459 127.536 67.0672 127.65 66.9098L127.555 66.9098ZM132.045 68.6677C132.186 68.3139 132.46 68.03 132.809 67.8779C133.158 67.7258 133.553 67.7178 133.908 67.8556C134.261 67.9942 134.545 68.2671 134.697 68.6145C134.849 68.9619 134.858 69.3555 134.72 69.7091C134.653 69.8847 134.551 70.0452 134.421 70.1812C134.291 70.3173 134.135 70.4262 133.963 70.5018C133.79 70.5773 133.605 70.6179 133.417 70.6212C133.229 70.6245 133.042 70.5905 132.867 70.5211C132.589 70.4261 132.349 70.2472 132.177 70.0093C132.006 69.7714 131.913 69.4862 131.911 69.1931C131.951 69.0043 132.029 68.8255 132.141 68.6677L132.045 68.6677ZM136.545 70.4256C136.684 70.0725 136.956 69.7887 137.304 69.6365C137.651 69.4843 138.045 69.476 138.398 69.6135C138.751 69.7521 139.035 70.025 139.187 70.3724C139.34 70.7198 139.348 71.1135 139.21 71.467C139.072 71.8201 138.799 72.1038 138.452 72.256C138.104 72.4082 137.711 72.4165 137.357 72.279C137.081 72.1816 136.842 72.0021 136.671 71.7648C136.5 71.5274 136.406 71.2434 136.402 70.9511C136.445 70.7615 136.526 70.5827 136.64 70.4256L136.545 70.4256ZM141.035 72.1835C141.104 72.0075 141.206 71.8468 141.337 71.7107C141.468 71.5745 141.625 71.4656 141.798 71.3901C141.971 71.3146 142.157 71.2741 142.346 71.2709C142.535 71.2677 142.723 71.3019 142.898 71.3714C143.251 71.51 143.535 71.7829 143.687 72.1303C143.84 72.4777 143.848 72.8714 143.71 73.2249C143.57 73.5786 143.295 73.8625 142.946 74.0146C142.597 74.1668 142.202 74.1748 141.847 74.037C141.579 73.9312 141.349 73.747 141.187 73.5084C141.025 73.2697 140.939 72.9878 140.94 72.6994C140.971 72.5231 141.036 72.3545 141.131 72.2026L141.035 72.1835ZM145.535 73.9318C145.674 73.5788 145.947 73.295 146.294 73.1428C146.641 72.9906 147.035 72.9823 147.389 73.1198C147.569 73.1891 147.735 73.2941 147.874 73.4286C148.014 73.5632 148.125 73.7244 148.2 73.9027C148.276 74.0811 148.315 74.2728 148.315 74.4666C148.315 74.6604 148.276 74.8522 148.201 75.0305C148.062 75.3836 147.789 75.6674 147.442 75.8196C147.094 75.9718 146.701 75.9801 146.347 75.8426C146.07 75.7446 145.83 75.5637 145.659 75.3244C145.488 75.0852 145.395 74.7991 145.392 74.5051C145.429 74.299 145.511 74.1035 145.631 73.9318L145.535 73.9318ZM150.025 75.6897C150.166 75.336 150.441 75.0521 150.79 74.9C151.139 74.7479 151.534 74.7398 151.888 74.8777C152.242 75.0182 152.526 75.2929 152.678 75.6419C152.83 75.9909 152.838 76.3858 152.7 76.7407C152.631 76.9216 152.526 77.0868 152.392 77.2262C152.257 77.3657 152.096 77.4766 151.918 77.5524C151.739 77.6282 151.547 77.6673 151.354 77.6674C151.16 77.6674 150.968 77.6285 150.79 77.5528C150.521 77.447 150.291 77.2628 150.129 77.0242C149.967 76.7855 149.881 76.5036 149.882 76.2152C149.926 76.0259 150.007 75.8472 150.121 75.6897L150.025 75.6897ZM154.525 77.4477C154.664 77.0946 154.937 76.8108 155.284 76.6586C155.632 76.5064 156.025 76.4981 156.379 76.6356C156.732 76.7762 157.016 77.0508 157.168 77.3998C157.321 77.7488 157.329 78.1437 157.191 78.4986C157.052 78.8517 156.779 79.1354 156.432 79.2877C156.084 79.4399 155.691 79.4481 155.337 79.3107C155.062 79.2103 154.823 79.0288 154.652 78.7901C154.482 78.5513 154.387 78.2665 154.382 77.9731C154.429 77.7832 154.513 77.6045 154.63 77.4477L154.525 77.4477ZM159.016 79.2056C159.156 78.8518 159.431 78.5679 159.78 78.4158C160.129 78.2637 160.524 78.2557 160.879 78.3935C161.232 78.5321 161.515 78.805 161.668 79.1524C161.82 79.4998 161.828 79.8934 161.691 80.2469C161.622 80.4287 161.518 80.5948 161.384 80.735C161.249 80.8752 161.088 80.9867 160.909 81.0626C160.731 81.1386 160.538 81.1774 160.344 81.1768C160.15 81.1762 159.958 81.1361 159.78 81.059C159.512 80.955 159.282 80.7725 159.121 80.5355C158.959 80.2985 158.872 80.0181 158.872 79.731C158.916 79.5417 158.997 79.363 159.111 79.2056L159.016 79.2056Z" fill="#A0AFFF"/>
</g>
<path fill-rule="evenodd" clip-rule="evenodd" d="M83.9071 92.1032C83.9071 82.4346 92.329 74.5967 102.718 74.5967C113.107 74.5967 121.529 82.4346 121.529 92.1032C121.529 101.696 115.525 112.89 106.158 116.893C103.974 117.826 101.462 117.826 99.2781 116.893C89.9109 112.89 83.9071 101.696 83.9071 92.1032ZM102.718 98.782C105.686 98.782 108.092 96.3758 108.092 93.4075C108.092 90.4393 105.686 88.033 102.718 88.033C99.7497 88.033 97.3434 90.4393 97.3434 93.4075C97.3434 96.3758 99.7497 98.782 102.718 98.782Z" fill="url(#paint1_linear_78_37956)"/>
<circle cx="102.867" cy="93.2579" r="5.8224" fill="white"/>
<g filter="url(#filter0_f_78_37956)">
<circle cx="152.102" cy="161.471" r="17.0928" fill="#5988FF" fill-opacity="0.65"/>
</g>
<circle cx="148.225" cy="157.594" r="17.0928" fill="url(#paint2_linear_78_37956)"/>
<path opacity="0.6" d="M154.672 165.229C155.886 164.567 156.615 163.718 156.615 162.792C156.615 161.811 155.796 160.916 154.448 160.239C152.889 159.455 150.624 158.962 148.103 158.962C145.582 158.962 143.317 159.455 141.759 160.239C140.411 160.916 139.591 161.811 139.591 162.792C139.591 163.773 140.411 164.668 141.759 165.346C143.317 166.13 145.582 166.623 148.103 166.623C150.748 166.623 153.11 166.08 154.672 165.229Z" fill="white"/>
<path fill-rule="evenodd" clip-rule="evenodd" d="M145.762 151.301C145.762 150.008 146.81 148.96 148.103 148.96C149.396 148.96 150.444 150.008 150.444 151.301C150.444 152.594 149.396 153.642 148.103 153.642C146.81 153.642 145.762 152.594 145.762 151.301Z" fill="white"/>
<path d="M144.888 157.748L143.037 157.131C142.504 156.954 142.145 156.455 142.145 155.894C142.145 155.063 142.91 154.444 143.722 154.618L145.338 154.964C145.427 154.984 145.472 154.993 145.517 155.003C147.223 155.355 148.983 155.355 150.689 155.003C150.734 154.993 150.779 154.984 150.869 154.964L152.484 154.618C153.296 154.444 154.062 155.063 154.062 155.894C154.062 156.455 153.702 156.954 153.17 157.131L151.318 157.748C151.094 157.823 150.982 157.86 150.898 157.912C150.612 158.089 150.456 158.418 150.502 158.752C150.515 158.85 150.558 158.96 150.642 159.18L151.704 161.939C152.02 162.761 151.413 163.644 150.533 163.644C150.083 163.644 149.668 163.402 149.444 163.012L148.103 160.664L146.762 163.012C146.538 163.402 146.123 163.644 145.673 163.644C144.793 163.644 144.187 162.761 144.503 161.939L145.564 159.18C145.648 158.96 145.691 158.85 145.704 158.752C145.75 158.418 145.594 158.089 145.308 157.912C145.224 157.86 145.112 157.823 144.888 157.748Z" fill="white"/>
<defs>
<filter id="filter0_f_78_37956" x="120.912" y="130.281" width="62.3798" height="62.3798" filterUnits="userSpaceOnUse" color-interpolation-filters="sRGB">
<feFlood flood-opacity="0" result="BackgroundImageFix"/>
<feBlend mode="normal" in="SourceGraphic" in2="BackgroundImageFix" result="shape"/>
<feGaussianBlur stdDeviation="7.04856" result="effect1_foregroundBlur_78_37956"/>
</filter>
<linearGradient id="paint0_linear_78_37956" x1="76.0233" y1="115.343" x2="44.0284" y2="83.3477" gradientUnits="userSpaceOnUse">
<stop stop-color="#B5C0FF"/>
<stop offset="1" stop-color="#8496F6"/>
</linearGradient>
<linearGradient id="paint1_linear_78_37956" x1="102.718" y1="74.5967" x2="102.718" y2="117.593" gradientUnits="userSpaceOnUse">
<stop stop-color="#B5C0FF"/>
<stop offset="1" stop-color="#6176E6"/>
</linearGradient>
<linearGradient id="paint2_linear_78_37956" x1="148.225" y1="140.501" x2="148.225" y2="174.686" gradientUnits="userSpaceOnUse">
<stop stop-color="#99B6FF"/>
<stop offset="1" stop-color="#2563FF"/>
</linearGradient>
</defs>
</svg>
