<svg width="42" height="42" viewBox="0 0 42 42" fill="none" xmlns="http://www.w3.org/2000/svg">
<g clip-path="url(#clip0_237_97195)">
<path d="M0.895547 20.7505C0.894562 24.2793 1.82381 27.7249 3.59077 30.7619L0.726562 41.1385L11.4287 38.3542C14.3888 39.9531 17.7053 40.7909 21.0756 40.7911H21.0844C32.2103 40.7911 41.2671 31.8079 41.2718 20.7663C41.274 15.4158 39.1759 10.3846 35.3641 6.5994C31.5529 2.81452 26.4842 0.729004 21.0836 0.726562C9.95639 0.726562 0.900305 9.70935 0.895711 20.7505" fill="url(#paint0_linear_237_97195)"/>
<path d="M0.175547 20.7421C0.174398 24.3979 1.13695 27.9668 2.96691 31.1126L0 41.8611L11.0859 38.977C14.1404 40.6295 17.5795 41.5007 21.0789 41.502H21.0879C32.613 41.502 41.9951 32.1956 42 20.7587C42.002 15.216 39.8285 10.004 35.8805 6.08316C31.932 2.16284 26.682 0.00227907 21.0879 0C9.56091 0 0.180141 9.30512 0.175547 20.7421ZM6.77759 30.5708L6.36366 29.9188C4.62361 27.1735 3.70519 24.001 3.7065 20.7434C3.71011 11.2373 11.507 3.50326 21.0945 3.50326C25.7375 3.50521 30.1009 5.30112 33.3828 8.55954C36.6645 11.8183 38.4704 16.1501 38.4692 20.7574C38.4649 30.2636 30.6679 37.9986 21.0879 37.9986H21.081C17.9617 37.997 14.9025 37.1658 12.2345 35.595L11.5995 35.2214L5.02097 36.9328L6.77759 30.5708Z" fill="url(#paint1_linear_237_97195)"/>
<path d="M15.8602 12.072C15.4688 11.2087 15.0568 11.1913 14.6846 11.1761C14.3797 11.1631 14.0313 11.1641 13.6831 11.1641C13.3347 11.1641 12.7685 11.2941 12.2899 11.8126C11.8108 12.3316 10.4609 13.5858 10.4609 16.1365C10.4609 18.6875 12.3334 21.1526 12.5944 21.4988C12.8558 21.8445 16.2092 27.2465 21.5202 29.3247C25.9342 31.0517 26.8324 30.7082 27.7904 30.6216C28.7485 30.5354 30.882 29.3678 31.3172 28.1571C31.7528 26.9466 31.7528 25.909 31.6222 25.6922C31.4916 25.4761 31.1431 25.3464 30.6206 25.0872C30.0979 24.8279 27.529 23.5736 27.0501 23.4006C26.5711 23.2277 26.2227 23.1414 25.8743 23.6605C25.5258 24.1789 24.5252 25.3464 24.2202 25.6922C23.9155 26.0388 23.6105 26.0819 23.0882 25.8226C22.5653 25.5624 20.8825 25.0156 18.886 23.2495C17.3327 21.8752 16.284 20.1781 15.9792 19.659C15.6744 19.1407 15.9465 18.8597 16.2085 18.6013C16.4433 18.369 16.7312 17.9959 16.9928 17.6933C17.2533 17.3905 17.3402 17.1745 17.5145 16.8287C17.6889 16.4826 17.6016 16.1798 17.4712 15.9205C17.3402 15.6612 16.3249 13.0971 15.8602 12.072Z" fill="white"/>
</g>
<defs>
<linearGradient id="paint0_linear_237_97195" x1="2027.99" y1="4041.92" x2="2027.99" y2="0.726562" gradientUnits="userSpaceOnUse">
<stop stop-color="#1FAF38"/>
<stop offset="1" stop-color="#60D669"/>
</linearGradient>
<linearGradient id="paint1_linear_237_97195" x1="2100" y1="4186.11" x2="2100" y2="0" gradientUnits="userSpaceOnUse">
<stop stop-color="#F9F9F9"/>
<stop offset="1" stop-color="white"/>
</linearGradient>
<clipPath id="clip0_237_97195">
<rect width="42" height="42" fill="white"/>
</clipPath>
</defs>
</svg>
