<svg width="22" height="22" viewBox="0 0 22 22" fill="none" xmlns="http://www.w3.org/2000/svg">
<path d="M15.8487 3.79491L15.7846 7.26906C15.7754 7.74573 16.0779 8.37824 16.4629 8.66241L18.7363 10.3857C20.1938 11.4857 19.9554 12.8332 18.2138 13.3832L15.2529 14.3091C14.7579 14.4649 14.2354 15.0057 14.1071 15.5099L13.4013 18.2049C12.8421 20.3316 11.4487 20.5424 10.2937 18.6724L8.6804 16.0599C8.38707 15.5832 7.69041 15.2257 7.14041 15.2532L4.07877 15.4091C1.88794 15.5191 1.26459 14.2541 2.69459 12.5857L4.50958 10.4774C4.84874 10.0832 5.00457 9.3499 4.84874 8.8549L3.92295 5.89406C3.38212 4.15239 4.35377 3.18991 6.08627 3.75824L8.79045 4.64741C9.24878 4.79407 9.93627 4.69323 10.3213 4.40906L13.1446 2.37406C14.6663 1.27406 15.8854 1.91575 15.8487 3.79491Z" stroke="#7F55DA" stroke-width="1.5" stroke-linecap="round" stroke-linejoin="round"/>
<path d="M20.0841 20.1662L17.3066 17.3887" stroke="#7F55DA" stroke-width="1.5" stroke-linecap="round" stroke-linejoin="round"/>
</svg>
