<svg width="350" height="173" viewBox="0 0 350 173" fill="none" xmlns="http://www.w3.org/2000/svg">
<g opacity="0.11">
<g clip-path="url(#clip0_711_30263)">
<path d="M70 -58H0V12H70V-58Z" fill="#D7CAF4"/>
<path d="M0 12H70L0 -58" fill="#F2EEFB"/>
<path d="M34.9991 1.27156C48.4044 1.27156 59.2716 -9.59561 59.2716 -23.0009C59.2716 -36.4063 48.4044 -47.2734 34.9991 -47.2734C21.5937 -47.2734 10.7266 -36.4063 10.7266 -23.0009C10.7266 -9.59561 21.5937 1.27156 34.9991 1.27156Z" fill="#D7CAF4"/>
</g>
<g clip-path="url(#clip1_711_30263)">
<path d="M140 -58H70V12H140V-58Z" fill="#D7CAF4"/>
<path d="M70 12H140L70 -58" fill="#F2EEFB"/>
<path d="M104.999 1.27156C118.404 1.27156 129.272 -9.59561 129.272 -23.0009C129.272 -36.4063 118.404 -47.2734 104.999 -47.2734C91.5937 -47.2734 80.7266 -36.4063 80.7266 -23.0009C80.7266 -9.59561 91.5937 1.27156 104.999 1.27156Z" fill="#D7CAF4"/>
</g>
<g clip-path="url(#clip2_711_30263)">
<path d="M210 -58H140V12H210V-58Z" fill="#D7CAF4"/>
<path d="M140 12H210L140 -58" fill="#F2EEFB"/>
<path d="M174.999 1.27156C188.404 1.27156 199.272 -9.59561 199.272 -23.0009C199.272 -36.4063 188.404 -47.2734 174.999 -47.2734C161.594 -47.2734 150.727 -36.4063 150.727 -23.0009C150.727 -9.59561 161.594 1.27156 174.999 1.27156Z" fill="#D7CAF4"/>
</g>
<g clip-path="url(#clip3_711_30263)">
<path d="M280 -58H210V12H280V-58Z" fill="#D7CAF4"/>
<path d="M210 12H280L210 -58" fill="#F2EEFB"/>
<path d="M244.999 1.27156C258.404 1.27156 269.272 -9.59561 269.272 -23.0009C269.272 -36.4063 258.404 -47.2734 244.999 -47.2734C231.594 -47.2734 220.727 -36.4063 220.727 -23.0009C220.727 -9.59561 231.594 1.27156 244.999 1.27156Z" fill="#D7CAF4"/>
</g>
<g clip-path="url(#clip4_711_30263)">
<path d="M350 -58H280V12H350V-58Z" fill="#D7CAF4"/>
<path d="M280 12H350L280 -58" fill="#F2EEFB"/>
<path d="M314.999 1.27156C328.404 1.27156 339.272 -9.59561 339.272 -23.0009C339.272 -36.4063 328.404 -47.2734 314.999 -47.2734C301.594 -47.2734 290.727 -36.4063 290.727 -23.0009C290.727 -9.59561 301.594 1.27156 314.999 1.27156Z" fill="#D7CAF4"/>
</g>
<g clip-path="url(#clip5_711_30263)">
<path d="M70 12H0V82H70V12Z" fill="#D7CAF4"/>
<path d="M0 82H70L0 12" fill="#F2EEFB"/>
<path d="M34.9991 71.2716C48.4044 71.2716 59.2716 60.4044 59.2716 46.9991C59.2716 33.5937 48.4044 22.7266 34.9991 22.7266C21.5937 22.7266 10.7266 33.5937 10.7266 46.9991C10.7266 60.4044 21.5937 71.2716 34.9991 71.2716Z" fill="#D7CAF4"/>
<path d="M52.1625 64.1624C56.7145 59.6104 59.2718 53.4366 59.2718 46.9991C59.2718 40.5616 56.7145 34.3878 52.1625 29.8358C47.6105 25.2838 41.4367 22.7266 34.9992 22.7266C28.5618 22.7266 22.3879 25.2838 17.8359 29.8358L52.1625 64.1624Z" fill="#F2EEFB"/>
</g>
<g clip-path="url(#clip6_711_30263)">
<path d="M140 12H70V82H140V12Z" fill="#D7CAF4"/>
<path d="M70 82H140L70 12" fill="#F2EEFB"/>
<path d="M104.999 71.2716C118.404 71.2716 129.272 60.4044 129.272 46.9991C129.272 33.5937 118.404 22.7266 104.999 22.7266C91.5937 22.7266 80.7266 33.5937 80.7266 46.9991C80.7266 60.4044 91.5937 71.2716 104.999 71.2716Z" fill="#D7CAF4"/>
<path d="M122.163 64.1624C126.715 59.6104 129.272 53.4366 129.272 46.9991C129.272 40.5616 126.715 34.3878 122.163 29.8358C117.611 25.2838 111.437 22.7266 104.999 22.7266C98.5618 22.7266 92.3879 25.2838 87.8359 29.8358L122.163 64.1624Z" fill="#F2EEFB"/>
</g>
<g clip-path="url(#clip7_711_30263)">
<path d="M210 12H140V82H210V12Z" fill="#D7CAF4"/>
<path d="M140 82H210L140 12" fill="#F2EEFB"/>
<path d="M174.999 71.2716C188.404 71.2716 199.272 60.4044 199.272 46.9991C199.272 33.5937 188.404 22.7266 174.999 22.7266C161.594 22.7266 150.727 33.5937 150.727 46.9991C150.727 60.4044 161.594 71.2716 174.999 71.2716Z" fill="#D7CAF4"/>
<path d="M192.163 64.1624C196.715 59.6104 199.272 53.4366 199.272 46.9991C199.272 40.5616 196.715 34.3878 192.163 29.8358C187.611 25.2838 181.437 22.7266 174.999 22.7266C168.562 22.7266 162.388 25.2838 157.836 29.8358L192.163 64.1624Z" fill="#F2EEFB"/>
</g>
<g clip-path="url(#clip8_711_30263)">
<path d="M280 12H210V82H280V12Z" fill="#D7CAF4"/>
<path d="M210 82H280L210 12" fill="#F2EEFB"/>
<path d="M244.999 71.2716C258.404 71.2716 269.272 60.4044 269.272 46.9991C269.272 33.5937 258.404 22.7266 244.999 22.7266C231.594 22.7266 220.727 33.5937 220.727 46.9991C220.727 60.4044 231.594 71.2716 244.999 71.2716Z" fill="#D7CAF4"/>
<path d="M262.163 64.1624C266.715 59.6104 269.272 53.4366 269.272 46.9991C269.272 40.5616 266.715 34.3878 262.163 29.8358C257.611 25.2838 251.437 22.7266 244.999 22.7266C238.562 22.7266 232.388 25.2838 227.836 29.8358L262.163 64.1624Z" fill="#F2EEFB"/>
</g>
<g clip-path="url(#clip9_711_30263)">
<path d="M350 12H280V82H350V12Z" fill="#D7CAF4"/>
<path d="M280 82H350L280 12" fill="#F2EEFB"/>
<path d="M314.999 71.2716C328.404 71.2716 339.272 60.4044 339.272 46.9991C339.272 33.5937 328.404 22.7266 314.999 22.7266C301.594 22.7266 290.727 33.5937 290.727 46.9991C290.727 60.4044 301.594 71.2716 314.999 71.2716Z" fill="#D7CAF4"/>
<path d="M332.163 64.1624C336.715 59.6104 339.272 53.4366 339.272 46.9991C339.272 40.5616 336.715 34.3878 332.163 29.8358C327.611 25.2838 321.437 22.7266 314.999 22.7266C308.562 22.7266 302.388 25.2838 297.836 29.8358L332.163 64.1624Z" fill="#F2EEFB"/>
</g>
<g clip-path="url(#clip10_711_30263)">
<path d="M70 82H0V152H70V82Z" fill="#D7CAF4"/>
<path d="M0 152H70L0 82" fill="#F2EEFB"/>
<path d="M34.9991 141.272C48.4044 141.272 59.2716 130.404 59.2716 116.999C59.2716 103.594 48.4044 92.7266 34.9991 92.7266C21.5937 92.7266 10.7266 103.594 10.7266 116.999C10.7266 130.404 21.5937 141.272 34.9991 141.272Z" fill="#D7CAF4"/>
<path d="M52.1625 134.162C56.7145 129.61 59.2718 123.437 59.2718 116.999C59.2718 110.562 56.7145 104.388 52.1625 99.8358C47.6105 95.2838 41.4367 92.7266 34.9992 92.7266C28.5618 92.7266 22.3879 95.2838 17.8359 99.8358L52.1625 134.162Z" fill="#F2EEFB"/>
</g>
<g clip-path="url(#clip11_711_30263)">
<path d="M140 82H70V152H140V82Z" fill="#D7CAF4"/>
<path d="M70 152H140L70 82" fill="#F2EEFB"/>
<path d="M104.999 141.272C118.404 141.272 129.272 130.404 129.272 116.999C129.272 103.594 118.404 92.7266 104.999 92.7266C91.5937 92.7266 80.7266 103.594 80.7266 116.999C80.7266 130.404 91.5937 141.272 104.999 141.272Z" fill="#D7CAF4"/>
<path d="M122.163 134.162C126.715 129.61 129.272 123.437 129.272 116.999C129.272 110.562 126.715 104.388 122.163 99.8358C117.611 95.2838 111.437 92.7266 104.999 92.7266C98.5618 92.7266 92.3879 95.2838 87.8359 99.8358L122.163 134.162Z" fill="#F2EEFB"/>
</g>
<g clip-path="url(#clip12_711_30263)">
<path d="M210 82H140V152H210V82Z" fill="#D7CAF4"/>
<path d="M140 152H210L140 82" fill="#F2EEFB"/>
<path d="M174.999 141.272C188.404 141.272 199.272 130.404 199.272 116.999C199.272 103.594 188.404 92.7266 174.999 92.7266C161.594 92.7266 150.727 103.594 150.727 116.999C150.727 130.404 161.594 141.272 174.999 141.272Z" fill="#D7CAF4"/>
<path d="M192.163 134.162C196.715 129.61 199.272 123.437 199.272 116.999C199.272 110.562 196.715 104.388 192.163 99.8358C187.611 95.2838 181.437 92.7266 174.999 92.7266C168.562 92.7266 162.388 95.2838 157.836 99.8358L192.163 134.162Z" fill="#F2EEFB"/>
</g>
<g clip-path="url(#clip13_711_30263)">
<path d="M280 82H210V152H280V82Z" fill="#D7CAF4"/>
<path d="M210 152H280L210 82" fill="#F2EEFB"/>
<path d="M244.999 141.272C258.404 141.272 269.272 130.404 269.272 116.999C269.272 103.594 258.404 92.7266 244.999 92.7266C231.594 92.7266 220.727 103.594 220.727 116.999C220.727 130.404 231.594 141.272 244.999 141.272Z" fill="#D7CAF4"/>
<path d="M262.163 134.162C266.715 129.61 269.272 123.437 269.272 116.999C269.272 110.562 266.715 104.388 262.163 99.8358C257.611 95.2838 251.437 92.7266 244.999 92.7266C238.562 92.7266 232.388 95.2838 227.836 99.8358L262.163 134.162Z" fill="#F2EEFB"/>
</g>
<g clip-path="url(#clip14_711_30263)">
<path d="M350 82H280V152H350V82Z" fill="#D7CAF4"/>
<path d="M280 152H350L280 82" fill="#F2EEFB"/>
<path d="M314.999 141.272C328.404 141.272 339.272 130.404 339.272 116.999C339.272 103.594 328.404 92.7266 314.999 92.7266C301.594 92.7266 290.727 103.594 290.727 116.999C290.727 130.404 301.594 141.272 314.999 141.272Z" fill="#D7CAF4"/>
<path d="M332.163 134.162C336.715 129.61 339.272 123.437 339.272 116.999C339.272 110.562 336.715 104.388 332.163 99.8358C327.611 95.2838 321.437 92.7266 314.999 92.7266C308.562 92.7266 302.388 95.2838 297.836 99.8358L332.163 134.162Z" fill="#F2EEFB"/>
</g>
<g clip-path="url(#clip15_711_30263)">
<path d="M70 152H0V222H70V152Z" fill="#D7CAF4"/>
<path d="M0 222H70L0 152" fill="#F2EEFB"/>
<path d="M34.9991 211.272C48.4044 211.272 59.2716 200.404 59.2716 186.999C59.2716 173.594 48.4044 162.727 34.9991 162.727C21.5937 162.727 10.7266 173.594 10.7266 186.999C10.7266 200.404 21.5937 211.272 34.9991 211.272Z" fill="#D7CAF4"/>
<path d="M52.1625 204.162C56.7145 199.61 59.2718 193.437 59.2718 186.999C59.2718 180.562 56.7145 174.388 52.1625 169.836C47.6105 165.284 41.4367 162.727 34.9992 162.727C28.5618 162.727 22.3879 165.284 17.8359 169.836L52.1625 204.162Z" fill="#F2EEFB"/>
</g>
<g clip-path="url(#clip16_711_30263)">
<path d="M140 152H70V222H140V152Z" fill="#D7CAF4"/>
<path d="M70 222H140L70 152" fill="#F2EEFB"/>
<path d="M104.999 211.272C118.404 211.272 129.272 200.404 129.272 186.999C129.272 173.594 118.404 162.727 104.999 162.727C91.5937 162.727 80.7266 173.594 80.7266 186.999C80.7266 200.404 91.5937 211.272 104.999 211.272Z" fill="#D7CAF4"/>
<path d="M122.163 204.162C126.715 199.61 129.272 193.437 129.272 186.999C129.272 180.562 126.715 174.388 122.163 169.836C117.611 165.284 111.437 162.727 104.999 162.727C98.5618 162.727 92.3879 165.284 87.8359 169.836L122.163 204.162Z" fill="#F2EEFB"/>
</g>
<g clip-path="url(#clip17_711_30263)">
<path d="M210 152H140V222H210V152Z" fill="#D7CAF4"/>
<path d="M140 222H210L140 152" fill="#F2EEFB"/>
<path d="M174.999 211.272C188.404 211.272 199.272 200.404 199.272 186.999C199.272 173.594 188.404 162.727 174.999 162.727C161.594 162.727 150.727 173.594 150.727 186.999C150.727 200.404 161.594 211.272 174.999 211.272Z" fill="#D7CAF4"/>
<path d="M192.163 204.162C196.715 199.61 199.272 193.437 199.272 186.999C199.272 180.562 196.715 174.388 192.163 169.836C187.611 165.284 181.437 162.727 174.999 162.727C168.562 162.727 162.388 165.284 157.836 169.836L192.163 204.162Z" fill="#F2EEFB"/>
</g>
<g clip-path="url(#clip18_711_30263)">
<path d="M280 152H210V222H280V152Z" fill="#D7CAF4"/>
<path d="M210 222H280L210 152" fill="#F2EEFB"/>
<path d="M244.999 211.272C258.404 211.272 269.272 200.404 269.272 186.999C269.272 173.594 258.404 162.727 244.999 162.727C231.594 162.727 220.727 173.594 220.727 186.999C220.727 200.404 231.594 211.272 244.999 211.272Z" fill="#D7CAF4"/>
<path d="M262.163 204.162C266.715 199.61 269.272 193.437 269.272 186.999C269.272 180.562 266.715 174.388 262.163 169.836C257.611 165.284 251.437 162.727 244.999 162.727C238.562 162.727 232.388 165.284 227.836 169.836L262.163 204.162Z" fill="#F2EEFB"/>
</g>
<g clip-path="url(#clip19_711_30263)">
<path d="M350 152H280V222H350V152Z" fill="#D7CAF4"/>
<path d="M280 222H350L280 152" fill="#F2EEFB"/>
<path d="M314.999 211.272C328.404 211.272 339.272 200.404 339.272 186.999C339.272 173.594 328.404 162.727 314.999 162.727C301.594 162.727 290.727 173.594 290.727 186.999C290.727 200.404 301.594 211.272 314.999 211.272Z" fill="#D7CAF4"/>
<path d="M332.163 204.162C336.715 199.61 339.272 193.437 339.272 186.999C339.272 180.562 336.715 174.388 332.163 169.836C327.611 165.284 321.437 162.727 314.999 162.727C308.562 162.727 302.388 165.284 297.836 169.836L332.163 204.162Z" fill="#F2EEFB"/>
</g>
</g>
<defs>
<clipPath id="clip0_711_30263">
<rect width="70" height="70" fill="white" transform="translate(0 -58)"/>
</clipPath>
<clipPath id="clip1_711_30263">
<rect width="70" height="70" fill="white" transform="translate(70 -58)"/>
</clipPath>
<clipPath id="clip2_711_30263">
<rect width="70" height="70" fill="white" transform="translate(140 -58)"/>
</clipPath>
<clipPath id="clip3_711_30263">
<rect width="70" height="70" fill="white" transform="translate(210 -58)"/>
</clipPath>
<clipPath id="clip4_711_30263">
<rect width="70" height="70" fill="white" transform="translate(280 -58)"/>
</clipPath>
<clipPath id="clip5_711_30263">
<rect width="70" height="70" fill="white" transform="translate(0 12)"/>
</clipPath>
<clipPath id="clip6_711_30263">
<rect width="70" height="70" fill="white" transform="translate(70 12)"/>
</clipPath>
<clipPath id="clip7_711_30263">
<rect width="70" height="70" fill="white" transform="translate(140 12)"/>
</clipPath>
<clipPath id="clip8_711_30263">
<rect width="70" height="70" fill="white" transform="translate(210 12)"/>
</clipPath>
<clipPath id="clip9_711_30263">
<rect width="70" height="70" fill="white" transform="translate(280 12)"/>
</clipPath>
<clipPath id="clip10_711_30263">
<rect width="70" height="70" fill="white" transform="translate(0 82)"/>
</clipPath>
<clipPath id="clip11_711_30263">
<rect width="70" height="70" fill="white" transform="translate(70 82)"/>
</clipPath>
<clipPath id="clip12_711_30263">
<rect width="70" height="70" fill="white" transform="translate(140 82)"/>
</clipPath>
<clipPath id="clip13_711_30263">
<rect width="70" height="70" fill="white" transform="translate(210 82)"/>
</clipPath>
<clipPath id="clip14_711_30263">
<rect width="70" height="70" fill="white" transform="translate(280 82)"/>
</clipPath>
<clipPath id="clip15_711_30263">
<rect width="70" height="70" fill="white" transform="translate(0 152)"/>
</clipPath>
<clipPath id="clip16_711_30263">
<rect width="70" height="70" fill="white" transform="translate(70 152)"/>
</clipPath>
<clipPath id="clip17_711_30263">
<rect width="70" height="70" fill="white" transform="translate(140 152)"/>
</clipPath>
<clipPath id="clip18_711_30263">
<rect width="70" height="70" fill="white" transform="translate(210 152)"/>
</clipPath>
<clipPath id="clip19_711_30263">
<rect width="70" height="70" fill="white" transform="translate(280 152)"/>
</clipPath>
</defs>
</svg>
