<svg width="48" height="48" viewBox="0 0 48 48" fill="none" xmlns="http://www.w3.org/2000/svg">
<g clip-path="url(#clip0_165_10699)">
<path d="M0 19.2C0 12.4794 0 9.11905 1.30792 6.55211C2.4584 4.29417 4.29417 2.4584 6.55211 1.30792C9.11905 0 12.4794 0 19.2 0H28.8C35.5206 0 38.8809 0 41.4479 1.30792C43.7058 2.4584 45.5416 4.29417 46.6921 6.55211C48 9.11905 48 12.4794 48 19.2V28.8C48 35.5206 48 38.8809 46.6921 41.4479C45.5416 43.7058 43.7058 45.5416 41.4479 46.6921C38.8809 48 35.5206 48 28.8 48H19.2C12.4794 48 9.11905 48 6.55211 46.6921C4.29417 45.5416 2.4584 43.7058 1.30792 41.4479C0 38.8809 0 35.5206 0 28.8V19.2Z" fill="white"/>
<path d="M0 19.2C0 12.4794 0 9.11905 1.30792 6.55211C2.4584 4.29417 4.29417 2.4584 6.55211 1.30792C9.11905 0 12.4794 0 19.2 0H28.8C35.5206 0 38.8809 0 41.4479 1.30792C43.7058 2.4584 45.5416 4.29417 46.6921 6.55211C48 9.11905 48 12.4794 48 19.2V28.8C48 35.5206 48 38.8809 46.6921 41.4479C45.5416 43.7058 43.7058 45.5416 41.4479 46.6921C38.8809 48 35.5206 48 28.8 48H19.2C12.4794 48 9.11905 48 6.55211 46.6921C4.29417 45.5416 2.4584 43.7058 1.30792 41.4479C0 38.8809 0 35.5206 0 28.8V19.2Z" fill="url(#paint0_linear_165_10699)"/>
<path fill-rule="evenodd" clip-rule="evenodd" d="M24.0001 3.05828C12.4343 3.05828 3.0584 12.4342 3.0584 24C3.0584 35.5658 12.4343 44.9418 24.0001 44.9418C35.566 44.9418 44.9419 35.5658 44.9419 24C44.9419 12.4342 35.566 3.05828 24.0001 3.05828ZM2.94189 24C2.94189 12.3699 12.37 2.94177 24.0001 2.94177C35.6303 2.94177 45.0584 12.3699 45.0584 24C45.0584 35.6302 35.6303 45.0583 24.0001 45.0583C12.37 45.0583 2.94189 35.6302 2.94189 24Z" fill="#D0D5DD"/>
<path fill-rule="evenodd" clip-rule="evenodd" d="M24 18.1169C20.7506 18.1169 18.1165 20.751 18.1165 24.0004C18.1165 27.2497 20.7506 29.8839 24 29.8839C27.2494 29.8839 29.8835 27.2497 29.8835 24.0004C29.8835 20.751 27.2494 18.1169 24 18.1169ZM18 24.0004C18 20.6867 20.6863 18.0004 24 18.0004C27.3137 18.0004 30 20.6867 30 24.0004C30 27.3141 27.3137 30.0004 24 30.0004C20.6863 30.0004 18 27.3141 18 24.0004Z" fill="#D0D5DD"/>
<path fill-rule="evenodd" clip-rule="evenodd" d="M24.0002 19.9802C21.7803 19.9802 19.9808 21.7797 19.9808 23.9996C19.9808 26.2194 21.7803 28.019 24.0002 28.019C26.22 28.019 28.0196 26.2194 28.0196 23.9996C28.0196 21.7797 26.22 19.9802 24.0002 19.9802ZM19.8643 23.9996C19.8643 21.7154 21.716 19.8636 24.0002 19.8636C26.2844 19.8636 28.1361 21.7154 28.1361 23.9996C28.1361 26.2838 26.2844 28.1355 24.0002 28.1355C21.716 28.1355 19.8643 26.2838 19.8643 23.9996Z" fill="#D0D5DD"/>
<path d="M23.9419 0H24.0584V48H23.9419V0Z" fill="#D0D5DD"/>
<path d="M48 23.9414L48 24.0579L-5.09259e-09 24.0579L0 23.9414L48 23.9414Z" fill="#D0D5DD"/>
<path d="M39.9028 0H40.0193V48H39.9028V0Z" fill="#D0D5DD"/>
<path d="M15.9609 0H16.0774V48H15.9609V0Z" fill="#D0D5DD"/>
<path d="M31.9224 0H32.0389V48H31.9224V0Z" fill="#D0D5DD"/>
<path d="M7.98047 0H8.09697V48H7.98047V0Z" fill="#D0D5DD"/>
<path d="M48 39.9023L48 40.0188L-5.09259e-09 40.0188L0 39.9023L48 39.9023Z" fill="#D0D5DD"/>
<path d="M48 15.9609L48 16.0774L-5.09259e-09 16.0774L0 15.9609L48 15.9609Z" fill="#D0D5DD"/>
<path d="M48 31.9219L48 32.0384L-5.09259e-09 32.0384L0 31.9219L48 31.9219Z" fill="#D0D5DD"/>
<path d="M48 7.98047L48 8.09697L-5.09259e-09 8.09697L0 7.98047L48 7.98047Z" fill="#D0D5DD"/>
<g clip-path="url(#clip1_165_10699)">
<path fill-rule="evenodd" clip-rule="evenodd" d="M25.3914 17.0039C26.7751 17.2792 28.0461 17.9585 29.0437 18.9561L34.0875 13.9122C32.0924 11.9171 29.5504 10.5584 26.783 10.0079C24.0156 9.45741 21.1472 9.73996 18.5403 10.8197C15.9336 11.8995 13.7054 13.728 12.1379 16.0741C10.5703 18.4202 9.73354 21.1784 9.73359 24C9.73354 26.8216 10.5703 29.5798 12.1379 31.9259C13.7054 34.272 15.9336 36.1005 18.5403 37.1803C21.1472 38.26 24.0156 38.5426 26.783 37.9921C29.5504 37.4416 32.0924 36.0829 34.0875 34.0878L29.0437 29.0439C28.0461 30.0415 26.7751 30.7208 25.3914 30.9961C24.0077 31.2713 22.5735 31.13 21.27 30.5901C19.9667 30.0503 18.8526 29.136 18.0688 27.9629C17.285 26.7899 16.8667 25.4108 16.8666 24C16.8667 22.5892 17.285 21.2101 18.0688 20.0371C18.8526 18.864 19.9667 17.9497 21.27 17.4099C22.5735 16.87 24.0077 16.7287 25.3914 17.0039Z" fill="#3365E3"/>
<path fill-rule="evenodd" clip-rule="evenodd" d="M39.1314 18.9561C38.469 19.6185 37.9436 20.4048 37.5852 21.2703C37.2267 22.1357 37.0422 23.0633 37.0422 24C37.0422 24.9367 37.2267 25.8643 37.5851 26.7297C37.9436 27.5952 38.469 28.3815 39.1314 29.0439L34.0875 34.0878C32.7628 32.763 31.7119 31.1903 30.995 29.4595C30.2781 27.7286 29.909 25.8735 29.9091 24C29.909 22.1266 30.2781 20.2714 30.995 18.5405C31.712 16.8097 32.7628 15.237 34.0875 13.9123L39.1314 18.9561Z" fill="#3365E3"/>
</g>
<g filter="url(#filter0_b_165_10699)">
<path d="M0 24H48V28.8C48 35.5206 48 38.8809 46.6921 41.4479C45.5416 43.7058 43.7058 45.5416 41.4479 46.6921C38.8809 48 35.5206 48 28.8 48H19.2C12.4794 48 9.11905 48 6.55211 46.6921C4.29417 45.5416 2.4584 43.7058 1.30792 41.4479C0 38.8809 0 35.5206 0 28.8V24Z" fill="white" fill-opacity="0.2"/>
</g>
</g>
<path d="M0.15 19.2C0.15 15.8372 0.150117 13.3241 0.312992 11.3306C0.475724 9.33889 0.800182 7.87901 1.44157 6.62021C2.57767 4.39049 4.39049 2.57767 6.62021 1.44157C7.87901 0.800182 9.33889 0.475724 11.3306 0.312992C13.3241 0.150117 15.8372 0.15 19.2 0.15H28.8C32.1628 0.15 34.6759 0.150117 36.6694 0.312992C38.6611 0.475724 40.121 0.800182 41.3798 1.44157C43.6095 2.57767 45.4223 4.39049 46.5584 6.62021C47.1998 7.87901 47.5243 9.33889 47.687 11.3306C47.8499 13.3241 47.85 15.8372 47.85 19.2V28.8C47.85 32.1628 47.8499 34.6759 47.687 36.6694C47.5243 38.6611 47.1998 40.121 46.5584 41.3798C45.4223 43.6095 43.6095 45.4223 41.3798 46.5584C40.121 47.1998 38.6611 47.5243 36.6694 47.687C34.6759 47.8499 32.1628 47.85 28.8 47.85H19.2C15.8372 47.85 13.3241 47.8499 11.3306 47.687C9.33889 47.5243 7.87901 47.1998 6.62021 46.5584C4.39049 45.4223 2.57767 43.6095 1.44157 41.3798C0.800182 40.121 0.475724 38.6611 0.312992 36.6694C0.150117 34.6759 0.15 32.1628 0.15 28.8V19.2Z" stroke="#D0D5DD" stroke-width="0.3"/>
<defs>
<filter id="filter0_b_165_10699" x="-7.5" y="16.5" width="63" height="39" filterUnits="userSpaceOnUse" color-interpolation-filters="sRGB">
<feFlood flood-opacity="0" result="BackgroundImageFix"/>
<feGaussianBlur in="BackgroundImageFix" stdDeviation="3.75"/>
<feComposite in2="SourceAlpha" operator="in" result="effect1_backgroundBlur_165_10699"/>
<feBlend mode="normal" in="SourceGraphic" in2="effect1_backgroundBlur_165_10699" result="shape"/>
</filter>
<linearGradient id="paint0_linear_165_10699" x1="24" y1="0" x2="24" y2="48" gradientUnits="userSpaceOnUse">
<stop stop-color="white"/>
<stop offset="1" stop-color="#D0D5DD"/>
</linearGradient>
<clipPath id="clip0_165_10699">
<path d="M0 19.2C0 12.4794 0 9.11905 1.30792 6.55211C2.4584 4.29417 4.29417 2.4584 6.55211 1.30792C9.11905 0 12.4794 0 19.2 0H28.8C35.5206 0 38.8809 0 41.4479 1.30792C43.7058 2.4584 45.5416 4.29417 46.6921 6.55211C48 9.11905 48 12.4794 48 19.2V28.8C48 35.5206 48 38.8809 46.6921 41.4479C45.5416 43.7058 43.7058 45.5416 41.4479 46.6921C38.8809 48 35.5206 48 28.8 48H19.2C12.4794 48 9.11905 48 6.55211 46.6921C4.29417 45.5416 2.4584 43.7058 1.30792 41.4479C0 38.8809 0 35.5206 0 28.8V19.2Z" fill="white"/>
</clipPath>
<clipPath id="clip1_165_10699">
<rect width="28.5325" height="28.5325" fill="white" transform="matrix(-0.707107 -0.707107 -0.707107 0.707107 44.1753 24)"/>
</clipPath>
</defs>
</svg>
