<svg width="126" height="126" viewBox="0 0 126 126" fill="none" xmlns="http://www.w3.org/2000/svg">
<circle cx="63" cy="62.6236" r="62.4927" fill="#3365E3" fill-opacity="0.06"/>
<circle cx="62.9998" cy="62.6236" r="47.226" fill="#EFF2FF" stroke="white" stroke-width="2.62975"/>
<mask id="mask0_136_8787" style="mask-type:alpha" maskUnits="userSpaceOnUse" x="17" y="16" width="92" height="93">
<circle cx="63.0001" cy="62.6236" r="45.692" fill="white"/>
</mask>
<g mask="url(#mask0_136_8787)">
<path d="M129.468 118.396L133.032 118.396L133.032 87.3083L135.866 87.3083L135.866 83.7438L127.389 83.7438L113.624 53.7015L108.361 51.4321L127.24 32.5524L135.866 32.5524L135.866 30.7702L127.413 30.7702L127.413 8.78939L123.848 8.78939L123.848 11.9083L54.1215 11.9083L54.1215 30.4494L41.8539 25.1027L15.3344 25.1027L15.3344 8.78939L13.5521 8.78939L13.5521 25.0314L6.53612 25.0314L6.53612 54.1411L-19.1279 54.1411L-19.1279 8.7478L-22.6924 8.7478L-22.6924 54.1767L-53.0377 54.1767L-53.0377 57.7412L6.53612 57.7412L6.53611 67.7988L-12.8961 67.7988L-12.8961 73.2643L-11.1139 73.2643L-11.1139 69.5811L6.53611 69.5811L6.53611 78.8546L-19.0091 102.962L-53.0258 102.962L-53.0258 106.527L-17.6071 106.527L-5.51172 95.1204L17.7641 118.396L22.8019 118.396L-2.92157 92.6728L10.1006 80.3932L10.1006 44.0477L34.5349 66.5216L34.5349 118.337L36.3171 118.337L36.3171 68.1612L59.0167 89.043L59.0167 118.396L62.5811 118.396L62.5811 106.218L129.468 106.218L129.468 118.396ZM57.686 15.4311L95.0592 15.4311L95.0592 30.283L96.8414 30.283L96.8414 15.4311L123.848 15.4311L123.848 30.9068L104.665 50.1132L57.7335 31.4712L57.686 15.4311ZM10.1006 39.1941L10.1006 28.6077L41.0994 28.6077L73.8864 41.4635L59.0345 77.1912L59.0345 84.1953L10.1006 39.1941ZM62.5811 102.653L62.5811 77.9932L76.9993 42.6041C78.4013 43.1388 110.862 56.1728 110.862 56.1728L119.773 75.5872L92.6888 102.653L62.5811 102.653ZM95.2077 102.653L120.521 77.3456L125.102 87.338L129.468 87.338L129.468 102.653L95.2077 102.653Z" fill="white"/>
<path d="M20.152 31.6611L40.6951 31.6611L54.7212 37.394L49.5409 47.8556L49.5409 72.2543L20.152 44.8971L20.152 31.6611Z" fill="url(#paint0_linear_136_8787)"/>
<path opacity="0.3" d="M103.073 89.0134L97.2157 95.1205L90.764 87.7183L84.9658 87.7183L91.6195 74.6605L103.073 89.0134Z" fill="#A0AFFF"/>
<path opacity="0.4" d="M58.823 73.0422C58.823 75.713 60.9881 77.878 63.6588 77.878C66.3296 77.878 68.4946 75.713 68.4946 73.0422C68.4946 70.3715 66.3296 68.2064 63.6588 68.2064C60.9881 68.2064 58.823 70.3715 58.823 73.0422Z" fill="#A0AFFF"/>
<path d="M63.6588 75.4166C63.1892 75.4166 62.7301 75.2773 62.3396 75.0164C61.9492 74.7555 61.6448 74.3847 61.4651 73.9508C61.2854 73.5169 61.2384 73.0395 61.33 72.5789C61.4216 72.1183 61.6478 71.6953 61.9798 71.3632C62.3119 71.0311 62.735 70.805 63.1956 70.7133C63.6562 70.6217 64.1336 70.6688 64.5674 70.8485C65.0013 71.0282 65.3721 71.3325 65.633 71.723C65.894 72.1135 66.0332 72.5725 66.0332 73.0421C66.0309 73.6712 65.78 74.2738 65.3352 74.7186C64.8904 75.1634 64.2878 75.4143 63.6588 75.4166Z" fill="#A0AFFF"/>
<path d="M104.932 52.1416C104.933 51.9053 105.027 51.6788 105.194 51.5119C105.361 51.3458 105.587 51.252 105.823 51.2505C106.06 51.2507 106.286 51.3447 106.453 51.5119C106.613 51.6825 106.702 51.9077 106.702 52.1416C106.702 52.3755 106.613 52.6007 106.453 52.7713C106.286 52.9385 106.06 53.0325 105.823 53.0327C105.587 53.0327 105.36 52.9388 105.193 52.7717C105.026 52.6046 104.932 52.3779 104.932 52.1416Z" fill="#A0AFFF"/>
<path d="M101.868 50.8024C101.867 50.6851 101.889 50.5689 101.934 50.4604C101.978 50.352 102.044 50.2534 102.127 50.1705C102.21 50.0876 102.308 50.022 102.417 49.9775C102.525 49.933 102.642 49.9105 102.759 49.9113C102.818 49.9113 102.878 49.9113 102.937 49.9113C102.994 49.9237 103.05 49.9416 103.103 49.9647C103.158 49.9865 103.21 50.0144 103.258 50.0479C103.306 50.0802 103.352 50.1159 103.394 50.1548C103.552 50.3268 103.639 50.5515 103.639 50.7846C103.639 51.0177 103.552 51.2423 103.394 51.4143C103.353 51.4568 103.307 51.4946 103.258 51.5272C103.21 51.5607 103.158 51.5886 103.103 51.6103C102.995 51.6582 102.877 51.6825 102.759 51.6816C102.641 51.6807 102.525 51.6567 102.417 51.6108C102.309 51.5649 102.211 51.4981 102.129 51.4143C101.967 51.251 101.874 51.0322 101.868 50.8024Z" fill="#A0AFFF"/>
<path d="M11.2532 25.9402C11.4895 25.9402 11.7162 26.0341 11.8833 26.2012C12.0504 26.3683 12.1443 26.595 12.1443 26.8313C12.1443 27.0677 12.0504 27.2943 11.8833 27.4614C11.7162 27.6286 11.4895 27.7224 11.2532 27.7224C11.0169 27.7224 10.7902 27.6286 10.6231 27.4614C10.456 27.2943 10.3621 27.0677 10.3621 26.8313C10.3621 26.595 10.456 26.3683 10.6231 26.2012C10.7902 26.0341 11.0169 25.9402 11.2532 25.9402ZM14.2533 25.9402C14.4896 25.9402 14.7163 26.0341 14.8834 26.2012C15.0505 26.3683 15.1444 26.595 15.1444 26.8313C15.1444 27.0677 15.0505 27.2943 14.8834 27.4614C14.7163 27.6286 14.4896 27.7224 14.2533 27.7224C14.0169 27.7224 13.7903 27.6286 13.6232 27.4614C13.456 27.2943 13.3622 27.0677 13.3622 26.8313C13.3622 26.595 13.456 26.3683 13.6232 26.2012C13.7903 26.0341 14.0169 25.9402 14.2533 25.9402ZM17.2534 25.9402C17.4897 25.9402 17.7164 26.0341 17.8835 26.2012C18.0506 26.3683 18.1445 26.595 18.1445 26.8313C18.1445 27.0677 18.0506 27.2943 17.8835 27.4614C17.7164 27.6286 17.4897 27.7224 17.2534 27.7224C17.017 27.7224 16.7904 27.6286 16.6233 27.4614C16.4561 27.2943 16.3622 27.0677 16.3622 26.8313C16.3622 26.595 16.4561 26.3683 16.6233 26.2012C16.7904 26.0341 17.017 25.9402 17.2534 25.9402ZM20.2534 25.9402C20.4898 25.9402 20.7164 26.0341 20.8836 26.2012C21.0507 26.3683 21.1446 26.595 21.1446 26.8313C21.1446 27.0677 21.0507 27.2943 20.8836 27.4614C20.7164 27.6286 20.4898 27.7224 20.2534 27.7224C20.0171 27.7224 19.7904 27.6286 19.6233 27.4614C19.4562 27.2943 19.3623 27.0677 19.3623 26.8313C19.3623 26.595 19.4562 26.3683 19.6233 26.2012C19.7904 26.0341 20.0171 25.9402 20.2534 25.9402ZM23.2238 25.9402C23.4602 25.9402 23.6868 26.0341 23.8539 26.2012C24.021 26.3683 24.1149 26.595 24.1149 26.8313C24.1149 27.0677 24.021 27.2943 23.8539 27.4614C23.6868 27.6286 23.4602 27.7224 23.2238 27.7224C22.9875 27.7224 22.7608 27.6286 22.5937 27.4614C22.4266 27.2943 22.3327 27.0677 22.3327 26.8313C22.3325 26.7097 22.3572 26.5892 22.4053 26.4775C22.4534 26.3657 22.5238 26.265 22.6123 26.1815C22.7008 26.098 22.8055 26.0336 22.9198 25.9921C23.0342 25.9506 23.1558 25.9329 23.2773 25.9402L23.2238 25.9402ZM26.2239 25.9402C26.4602 25.9402 26.6869 26.0341 26.854 26.2012C27.0211 26.3683 27.115 26.595 27.115 26.8313C27.115 27.0677 27.0211 27.2943 26.854 27.4614C26.6869 27.6286 26.4602 27.7224 26.2239 27.7224C25.9876 27.7224 25.7609 27.6286 25.5938 27.4614C25.4267 27.2943 25.3328 27.0677 25.3328 26.8313C25.3327 26.7123 25.3566 26.5944 25.4028 26.4847C25.4491 26.375 25.5169 26.2757 25.6021 26.1927C25.6874 26.1096 25.7885 26.0445 25.8994 26.0011C26.0102 25.9577 26.1287 25.937 26.2477 25.9402L26.2239 25.9402ZM29.224 25.9402C29.4603 25.9402 29.687 26.0341 29.8541 26.2012C30.0212 26.3683 30.1151 26.595 30.1151 26.8313C30.1151 27.0677 30.0212 27.2943 29.8541 27.4614C29.687 27.6286 29.4603 27.7224 29.224 27.7224C28.9876 27.7224 28.761 27.6286 28.5939 27.4614C28.4268 27.2943 28.3329 27.0677 28.3329 26.8313C28.3328 26.7118 28.3568 26.5934 28.4034 26.4833C28.4501 26.3732 28.5184 26.2736 28.6043 26.1905C28.6902 26.1073 28.792 26.0423 28.9035 25.9993C29.0151 25.9563 29.1342 25.9362 29.2537 25.9402L29.224 25.9402ZM32.2241 25.9402C32.4609 25.9402 32.6882 26.0339 32.8563 26.2009C33.0243 26.3678 33.1195 26.5944 33.1211 26.8313C33.1195 27.0682 33.0243 27.2949 32.8563 27.4618C32.6882 27.6288 32.4609 27.7224 32.2241 27.7224C31.9877 27.7224 31.7611 27.6286 31.5939 27.4614C31.4268 27.2943 31.3329 27.0677 31.3329 26.8313C31.3329 26.7118 31.3569 26.5934 31.4035 26.4833C31.4501 26.3732 31.5184 26.2736 31.6044 26.1905C31.6903 26.1073 31.792 26.0423 31.9036 25.9993C32.0152 25.9563 32.1343 25.9362 32.2538 25.9402L32.2241 25.9402ZM35.2301 25.9402C35.4664 25.9402 35.6931 26.0341 35.8602 26.2012C36.0273 26.3683 36.1212 26.595 36.1212 26.8313C36.1212 27.0677 36.0273 27.2943 35.8602 27.4614C35.6931 27.6286 35.4664 27.7224 35.2301 27.7224C34.9937 27.7224 34.7671 27.6286 34.6 27.4614C34.4328 27.2943 34.339 27.0677 34.339 26.8313C34.3389 26.7118 34.3629 26.5934 34.4095 26.4833C34.4562 26.3732 34.5245 26.2736 34.6104 26.1905C34.6963 26.1073 34.7981 26.0423 34.9096 25.9993C35.0212 25.9563 35.1403 25.9362 35.2598 25.9402L35.2301 25.9402ZM38.2302 25.9402C38.4665 25.9402 38.6931 26.0341 38.8603 26.2012C39.0274 26.3683 39.1213 26.595 39.1213 26.8313C39.1213 27.0677 39.0274 27.2943 38.8603 27.4614C38.6931 27.6286 38.4665 27.7224 38.2302 27.7224C37.9938 27.7224 37.7672 27.6286 37.6 27.4614C37.4329 27.2943 37.3391 27.0677 37.3391 26.8313C37.339 26.7118 37.363 26.5934 37.4096 26.4833C37.4562 26.3732 37.5245 26.2736 37.6105 26.1905C37.6964 26.1073 37.7982 26.0423 37.9097 25.9993C38.0213 25.9563 38.1404 25.9362 38.2599 25.9402L38.2302 25.9402ZM41.2005 25.9402C41.4369 25.9402 41.6635 26.0341 41.8306 26.2012C41.9978 26.3683 42.0917 26.595 42.0917 26.8313C42.0917 27.0677 41.9978 27.2943 41.8306 27.4614C41.6635 27.6286 41.4369 27.7224 41.2005 27.7224C40.9642 27.7224 40.7375 27.6286 40.5704 27.4614C40.4033 27.2943 40.3094 27.0677 40.3094 26.8313C40.3092 26.7091 40.334 26.5882 40.3825 26.476C40.4309 26.3638 40.5019 26.2628 40.5911 26.1792C40.6802 26.0957 40.7856 26.0313 40.9007 25.9902C41.0157 25.9491 41.138 25.9321 41.2599 25.9402L41.2005 25.9402ZM43.1788 27.5383C43.265 27.3187 43.4347 27.1423 43.6507 27.0476C43.8667 26.953 44.1115 26.9478 44.3313 27.0333C44.5513 27.1207 44.7278 27.2915 44.8224 27.5085C44.917 27.7255 44.922 27.9711 44.8363 28.1918C44.7501 28.4113 44.5804 28.5878 44.3644 28.6824C44.1483 28.7771 43.9036 28.7822 43.6838 28.6967C43.5118 28.6351 43.3628 28.5224 43.2567 28.3738C43.1505 28.2251 43.0923 28.0476 43.0897 27.865C43.1171 27.7474 43.1676 27.6363 43.2382 27.5383L43.1788 27.5383ZM45.971 28.6314C46.0571 28.4118 46.2268 28.2354 46.4429 28.1407C46.6589 28.0461 46.9036 28.0409 47.1235 28.1264C47.2332 28.1678 47.3335 28.2306 47.4185 28.3113C47.5036 28.392 47.5716 28.4889 47.6187 28.5963C47.6657 28.7037 47.6909 28.8194 47.6925 28.9366C47.6942 29.0539 47.6724 29.1702 47.6284 29.2789C47.5871 29.3886 47.5242 29.489 47.4435 29.574C47.3628 29.6591 47.2659 29.7271 47.1585 29.7742C47.0511 29.8212 46.9354 29.8463 46.8182 29.848C46.701 29.8497 46.5846 29.8279 46.4759 29.7839C46.3095 29.7192 46.1666 29.6057 46.0659 29.4584C45.9652 29.311 45.9114 29.1366 45.9115 28.9581C45.9296 28.8425 45.97 28.7316 46.0304 28.6314L45.971 28.6314ZM48.769 29.7245C48.8552 29.5049 49.0249 29.3285 49.2409 29.2338C49.457 29.1392 49.7017 29.134 49.9216 29.2195C50.1411 29.3057 50.3175 29.4754 50.4122 29.6914C50.5069 29.9075 50.512 30.1522 50.4265 30.372C50.3845 30.4812 50.3212 30.581 50.2404 30.6656C50.1596 30.7502 50.0628 30.818 49.9556 30.8649C49.8484 30.9119 49.733 30.9371 49.616 30.9392C49.499 30.9413 49.3828 30.9201 49.274 30.877C49.1016 30.8179 48.9519 30.7067 48.8454 30.5587C48.739 30.4108 48.6812 30.2335 48.6799 30.0512C48.705 29.9338 48.7535 29.8227 48.8225 29.7245L48.769 29.7245ZM51.5612 30.8176C51.6474 30.598 51.8171 30.4216 52.0331 30.3269C52.2491 30.2323 52.4939 30.2271 52.7137 30.3126C52.8229 30.3547 52.9228 30.4179 53.0076 30.4986C53.0924 30.5793 53.1605 30.676 53.208 30.783C53.2554 30.89 53.2813 31.0054 53.2842 31.1224C53.287 31.2394 53.2668 31.3559 53.2246 31.4651C53.1372 31.6851 52.9664 31.8616 52.7494 31.9562C52.5324 32.0508 52.2868 32.0558 52.0662 31.9701C51.8998 31.9054 51.7569 31.7919 51.6562 31.6446C51.5555 31.4972 51.5016 31.3228 51.5018 31.1443C51.5194 31.0286 51.5598 30.9176 51.6206 30.8176L51.5612 30.8176ZM54.3533 31.9107C54.3964 31.7982 54.4618 31.6955 54.5454 31.6087C54.6291 31.522 54.7293 31.453 54.8402 31.4059C54.9511 31.3588 55.0703 31.3345 55.1908 31.3344C55.3113 31.3344 55.4306 31.3586 55.5415 31.4057C55.7611 31.4919 55.9375 31.6616 56.0322 31.8776C56.1268 32.0936 56.132 32.3384 56.0465 32.5582C55.9603 32.7778 55.7906 32.9542 55.5746 33.0489C55.3585 33.1435 55.1138 33.1487 54.894 33.0632C54.7216 33.0022 54.5721 32.8897 54.4658 32.741C54.3596 32.5922 54.3016 32.4143 54.2999 32.2315C54.3161 32.1182 54.3545 32.0092 54.4128 31.9107L54.3533 31.9107ZM57.1514 33.0038C57.1935 32.8945 57.2567 32.7946 57.3375 32.7098C57.4182 32.625 57.5148 32.5569 57.6218 32.5095C57.7289 32.4621 57.8442 32.4362 57.9612 32.4333C58.0783 32.4304 58.1947 32.4507 58.304 32.4929C58.4165 32.5359 58.5192 32.6013 58.6059 32.6849C58.6926 32.7686 58.7616 32.8688 58.8087 32.9797C58.8558 33.0906 58.8802 33.2099 58.8802 33.3303C58.8802 33.4508 58.856 33.5701 58.8089 33.681C58.7227 33.9006 58.553 34.077 58.337 34.1717C58.121 34.2663 57.8762 34.2715 57.6564 34.186C57.4896 34.1202 57.3465 34.0057 57.2458 33.8573C57.1451 33.7089 57.0915 33.5336 57.092 33.3543C57.1061 33.2303 57.1467 33.1108 57.2108 33.0038L57.1514 33.0038ZM59.9495 34.0909C60.0357 33.8714 60.2054 33.6949 60.4214 33.6003C60.6375 33.5056 60.8822 33.5005 61.102 33.586C61.322 33.6734 61.4986 33.8442 61.5931 34.0612C61.6877 34.2782 61.6927 34.5238 61.607 34.7444C61.5208 34.964 61.3511 35.1404 61.1351 35.2351C60.9191 35.3297 60.6743 35.3349 60.4545 35.2494C60.2821 35.1884 60.1326 35.0759 60.0264 34.9272C59.9201 34.7784 59.8622 34.6005 59.8604 34.4177C59.8846 34.2989 59.9354 34.1872 60.0089 34.0909L59.9495 34.0909ZM62.7417 35.184C62.8278 34.9645 62.9976 34.788 63.2136 34.6934C63.4296 34.5987 63.6744 34.5936 63.8942 34.6791C64.0034 34.7211 64.1032 34.7843 64.1878 34.8652C64.2724 34.946 64.3402 35.0428 64.3871 35.15C64.4341 35.2571 64.4593 35.3726 64.4614 35.4896C64.4634 35.6066 64.4423 35.7228 64.3992 35.8316C64.3571 35.9408 64.2939 36.0407 64.2131 36.1255C64.1324 36.2103 64.0358 36.2784 63.9288 36.3258C63.8217 36.3733 63.7064 36.3992 63.5894 36.402C63.4723 36.4049 63.3559 36.3846 63.2467 36.3425C63.0803 36.276 62.9376 36.1613 62.837 36.0131C62.7365 35.8649 62.6826 35.6899 62.6823 35.5108C62.7003 35.3952 62.7407 35.2842 62.8011 35.184L62.7417 35.184ZM65.5338 36.2771C65.5769 36.1646 65.6422 36.0619 65.7259 35.9752C65.8095 35.8885 65.9098 35.8195 66.0207 35.7723C66.1316 35.7252 66.2508 35.7009 66.3713 35.7009C66.4918 35.7008 66.6111 35.7251 66.722 35.7722C66.9416 35.8583 67.118 36.028 67.2126 36.2441C67.3073 36.4601 67.3124 36.7048 67.227 36.9247C67.185 37.0346 67.1215 37.135 67.0403 37.2201C66.959 37.3052 66.8616 37.3733 66.7537 37.4203C66.6459 37.4673 66.5297 37.4924 66.4121 37.494C66.2944 37.4956 66.1776 37.4737 66.0685 37.4296C65.8966 37.3698 65.7473 37.2584 65.641 37.1106C65.5347 36.9628 65.4765 36.7859 65.4744 36.6039C65.492 36.4882 65.5324 36.3771 65.5932 36.2771L65.5338 36.2771ZM68.3319 37.3702C68.4181 37.1507 68.5878 36.9742 68.8038 36.8796C69.0199 36.7849 69.2646 36.7798 69.4844 36.8653C69.704 36.9514 69.8804 37.1211 69.9751 37.3372C70.0697 37.5532 70.0749 37.7979 69.9894 38.0178C69.9032 38.2373 69.7335 38.4138 69.5175 38.5084C69.3015 38.6031 69.0567 38.6082 68.8369 38.5227C68.6701 38.457 68.527 38.3424 68.4263 38.194C68.3256 38.0457 68.272 37.8703 68.2725 37.691C68.2906 37.5773 68.331 37.4683 68.3913 37.3702L68.3319 37.3702ZM71.1241 38.4633C71.1672 38.3508 71.2325 38.2481 71.3161 38.1614C71.3998 38.0747 71.5 38.0057 71.6109 37.9585C71.7218 37.9114 71.8411 37.8871 71.9616 37.8871C72.0821 37.887 72.2013 37.9113 72.3122 37.9584C72.5318 38.0445 72.7082 38.2142 72.8029 38.4303C72.8975 38.6463 72.9027 38.891 72.8172 39.1109C72.731 39.3304 72.5613 39.5069 72.3453 39.6015C72.1293 39.6962 71.8845 39.7013 71.6647 39.6158C71.4923 39.5549 71.3428 39.4424 71.2366 39.2936C71.1303 39.1448 71.0724 38.9669 71.0706 38.7841C71.0904 38.6811 71.1287 38.5825 71.1835 38.493L71.1241 38.4633ZM73.9222 39.5564C73.9635 39.4467 74.0264 39.3464 74.1071 39.2613C74.1878 39.1763 74.2847 39.1082 74.3921 39.0612C74.4995 39.0141 74.6152 38.989 74.7324 38.9874C74.8496 38.9857 74.966 39.0075 75.0747 39.0515C75.1839 39.0935 75.2837 39.1567 75.3683 39.2376C75.4529 39.3184 75.5206 39.4152 75.5676 39.5224C75.6146 39.6295 75.6398 39.7449 75.6419 39.8619C75.6439 39.9789 75.6228 40.0952 75.5796 40.204C75.4935 40.4235 75.3238 40.6 75.1077 40.6946C74.8917 40.7893 74.647 40.7944 74.4271 40.7089C74.2603 40.6432 74.1172 40.5286 74.0165 40.3802C73.9158 40.2319 73.8622 40.0565 73.8628 39.8772C73.8808 39.7635 73.9212 39.6545 73.9816 39.5564L73.9222 39.5564ZM76.7143 40.6436C76.8017 40.4236 76.9726 40.2471 77.1895 40.1525C77.4065 40.0579 77.6521 40.0529 77.8728 40.1386C77.9853 40.1817 78.088 40.247 78.1747 40.3307C78.2614 40.4143 78.3304 40.5146 78.3775 40.6255C78.4247 40.7363 78.449 40.8556 78.449 40.9761C78.4491 41.0966 78.4248 41.2158 78.3777 41.3268C78.2903 41.5467 78.1195 41.7233 77.9025 41.8179C77.6855 41.9124 77.44 41.9174 77.2193 41.8317C77.0469 41.7708 76.8974 41.6583 76.7912 41.5095C76.6849 41.3607 76.627 41.1829 76.6252 41C76.6394 40.8742 76.6799 40.7527 76.744 40.6436L76.7143 40.6436ZM79.5124 41.7367C79.5986 41.5171 79.7683 41.3407 79.9843 41.246C80.2004 41.1514 80.4451 41.1462 80.6649 41.2317C80.8845 41.3179 81.0609 41.4876 81.1556 41.7036C81.2502 41.9196 81.2554 42.1644 81.1699 42.3842C81.1285 42.4939 81.0657 42.5943 80.985 42.6793C80.9043 42.7644 80.8074 42.8324 80.7 42.8795C80.5926 42.9265 80.4769 42.9516 80.3597 42.9533C80.2424 42.9549 80.1261 42.9331 80.0174 42.8892C79.8455 42.8293 79.6962 42.7179 79.5899 42.5702C79.4836 42.4224 79.4254 42.2454 79.4233 42.0634C79.4505 41.9457 79.501 41.8345 79.5718 41.7367L79.5124 41.7367ZM82.3046 42.8298C82.392 42.6098 82.5628 42.4333 82.7798 42.3387C82.9968 42.2441 83.2424 42.2391 83.463 42.3248C83.6826 42.411 83.859 42.5807 83.9537 42.7967C84.0483 43.0127 84.0535 43.2575 83.968 43.4773C83.926 43.5865 83.8627 43.6863 83.7819 43.7709C83.7011 43.8555 83.6043 43.9233 83.4971 43.9702C83.3899 44.0172 83.2745 44.0424 83.1575 44.0445C83.0405 44.0466 82.9242 44.0254 82.8155 43.9823C82.6431 43.9232 82.4933 43.812 82.3869 43.664C82.2805 43.5161 82.2226 43.3388 82.2214 43.1565C82.2463 43.0391 82.2948 42.9279 82.364 42.8298L82.3046 42.8298ZM85.1027 43.9229C85.1888 43.7033 85.3585 43.5269 85.5746 43.4322C85.7906 43.3376 86.0353 43.3324 86.2552 43.4179C86.4747 43.5041 86.6512 43.6738 86.7458 43.8898C86.8405 44.1058 86.8456 44.3506 86.7601 44.5704C86.674 44.79 86.5043 44.9664 86.2882 45.0611C86.0722 45.1557 85.8275 45.1609 85.6076 45.0754C85.4362 45.0148 85.2874 44.9032 85.1812 44.7556C85.075 44.608 85.0165 44.4314 85.0136 44.2496C85.0404 44.1317 85.0909 44.0206 85.1621 43.9229L85.1027 43.9229ZM87.8948 45.016C87.9375 44.9065 88.0013 44.8066 88.0827 44.722C88.1641 44.6373 88.2614 44.5696 88.3691 44.5226C88.4767 44.4757 88.5926 44.4505 88.71 44.4485C88.8274 44.4465 88.9441 44.4678 89.0533 44.511C89.2728 44.5972 89.4493 44.7669 89.5439 44.9829C89.6386 45.1989 89.6437 45.4437 89.5582 45.6635C89.4708 45.8835 89.3 46.06 89.083 46.1546C88.866 46.2492 88.6204 46.2542 88.3998 46.1685C88.2329 46.1027 88.0898 45.9882 87.9892 45.8398C87.8885 45.6914 87.8349 45.5161 87.8354 45.3368C87.855 45.2272 87.8953 45.1223 87.9542 45.0278L87.8948 45.016ZM90.6929 46.1031C90.7791 45.8836 90.9488 45.7071 91.1648 45.6125C91.3808 45.5178 91.6256 45.5127 91.8454 45.5982C91.9579 45.6412 92.0606 45.7066 92.1474 45.7902C92.2341 45.8739 92.3031 45.9741 92.3502 46.085C92.3973 46.1959 92.4216 46.3151 92.4217 46.4356C92.4217 46.5561 92.3975 46.6754 92.3504 46.7863C92.2642 47.0059 92.0945 47.1823 91.8785 47.277C91.6625 47.3716 91.4177 47.3768 91.1979 47.2913C91.0255 47.2303 90.876 47.1178 90.7697 46.9691C90.6635 46.8203 90.6055 46.6424 90.6038 46.4596C90.627 46.3314 90.6777 46.2098 90.7523 46.1031L90.6929 46.1031ZM93.4851 47.1962C93.5725 46.9762 93.7433 46.7997 93.9603 46.7051C94.1773 46.6105 94.4229 46.6055 94.6435 46.6912C94.8635 46.7787 95.04 46.9495 95.1346 47.1665C95.2292 47.3835 95.2342 47.629 95.1485 47.8497C95.1054 47.9622 95.0401 48.0649 94.9564 48.1516C94.8728 48.2384 94.7725 48.3073 94.6616 48.3545C94.5507 48.4016 94.4315 48.4259 94.311 48.4259C94.1905 48.426 94.0712 48.4017 93.9603 48.3547C93.7935 48.2889 93.6504 48.1744 93.5497 48.026C93.449 47.8776 93.3954 47.7023 93.396 47.523C93.4231 47.4052 93.4736 47.2941 93.5445 47.1962L93.4851 47.1962ZM96.2832 48.2893C96.3693 48.0698 96.539 47.8933 96.7551 47.7987C96.9711 47.704 97.2158 47.6989 97.4357 47.7844C97.6557 47.8718 97.8322 48.0426 97.9268 48.2596C98.0214 48.4766 98.0263 48.7221 97.9406 48.9428C97.8545 49.1624 97.6848 49.3388 97.4687 49.4335C97.2527 49.5281 97.0079 49.5333 96.7881 49.4478C96.6167 49.3854 96.4681 49.2725 96.3621 49.1241C96.256 48.9756 96.1975 48.7985 96.1941 48.6161C96.2233 48.498 96.2758 48.3869 96.3485 48.2893L96.2832 48.2893ZM99.0753 49.3824C99.1627 49.1624 99.3335 48.9859 99.5505 48.8913C99.7675 48.7967 100.013 48.7918 100.234 48.8775C100.453 48.9636 100.63 49.1333 100.724 49.3494C100.819 49.5654 100.824 49.8101 100.739 50.03C100.696 50.143 100.631 50.2463 100.548 50.3334C100.464 50.4206 100.364 50.4899 100.253 50.5372C100.142 50.5844 100.022 50.6085 99.9015 50.6082C99.7808 50.6078 99.6614 50.5828 99.5506 50.5349C99.3842 50.4702 99.2413 50.3568 99.1406 50.2094C99.0399 50.062 98.986 49.8877 98.9862 49.7092C99.0133 49.5914 99.0639 49.4803 99.1347 49.3824L99.0753 49.3824Z" fill="#A0AFFF"/>
</g>
<path fill-rule="evenodd" clip-rule="evenodd" d="M52.3716 57.4025C52.3716 51.3904 57.6085 46.5166 64.0685 46.5166C70.5285 46.5166 75.7654 51.3904 75.7654 57.4025C75.7654 63.3675 72.0322 70.3281 66.2075 72.8172C64.8496 73.3975 63.2874 73.3975 61.9295 72.8172C56.1048 70.3281 52.3716 63.3675 52.3716 57.4025ZM64.0685 61.5555C65.9142 61.5555 67.4105 60.0592 67.4105 58.2135C67.4105 56.3678 65.9142 54.8715 64.0685 54.8715C62.2228 54.8715 60.7265 56.3678 60.7265 58.2135C60.7265 60.0592 62.2228 61.5555 64.0685 61.5555Z" fill="url(#paint1_linear_136_8787)"/>
<circle cx="64.1615" cy="58.121" r="3.62048" fill="white"/>
<g filter="url(#filter0_f_136_8787)">
<circle cx="94.7765" cy="100.536" r="10.6286" fill="#5988FF" fill-opacity="0.65"/>
</g>
<circle cx="92.3659" cy="98.1252" r="10.6286" fill="url(#paint2_linear_136_8787)"/>
<path opacity="0.6" d="M96.3743 102.872C97.1294 102.461 97.583 101.933 97.583 101.357C97.583 100.747 97.0733 100.191 96.2352 99.7693C95.266 99.282 93.8576 98.9753 92.29 98.9753C90.7224 98.9753 89.314 99.282 88.3448 99.7693C87.5067 100.191 86.9971 100.747 86.9971 101.357C86.9971 101.967 87.5067 102.524 88.3448 102.945C89.314 103.432 90.7224 103.739 92.29 103.739C93.9343 103.739 95.4035 103.402 96.3743 102.872Z" fill="white"/>
<path fill-rule="evenodd" clip-rule="evenodd" d="M90.8345 94.2118C90.8345 93.4079 91.4861 92.7562 92.29 92.7562C93.0939 92.7562 93.7456 93.4079 93.7456 94.2118C93.7456 95.0157 93.0939 95.6673 92.29 95.6673C91.4861 95.6673 90.8345 95.0157 90.8345 94.2118Z" fill="white"/>
<path d="M90.2909 98.2209L89.1396 97.8371C88.8084 97.7267 88.585 97.4167 88.585 97.0676C88.585 96.5512 89.0611 96.1663 89.566 96.2745L90.5704 96.4898C90.6262 96.5017 90.6541 96.5077 90.6818 96.5134C91.7427 96.7329 92.8373 96.7329 93.8982 96.5134C93.9259 96.5077 93.9538 96.5017 94.0097 96.4898L95.0141 96.2745C95.519 96.1663 95.9951 96.5512 95.9951 97.0676C95.9951 97.4167 95.7717 97.7267 95.4405 97.8371L94.2891 98.2209C94.15 98.2672 94.0804 98.2904 94.0281 98.3227C93.8499 98.4327 93.7533 98.6374 93.7817 98.8448C93.79 98.9057 93.8164 98.9742 93.869 99.1111L94.5289 100.827C94.7254 101.338 94.3484 101.887 93.8011 101.887C93.5213 101.887 93.2629 101.737 93.1241 101.494L92.29 100.034L91.4559 101.494C91.3171 101.737 91.0587 101.887 90.7789 101.887C90.2317 101.887 89.8547 101.338 90.0511 100.827L90.711 99.1111C90.7637 98.9742 90.79 98.9057 90.7983 98.8448C90.8267 98.6374 90.7301 98.4327 90.552 98.3227C90.4996 98.2904 90.4301 98.2672 90.2909 98.2209Z" fill="white"/>
<defs>
<filter id="filter0_f_136_8787" x="75.3821" y="81.1414" width="38.789" height="38.7889" filterUnits="userSpaceOnUse" color-interpolation-filters="sRGB">
<feFlood flood-opacity="0" result="BackgroundImageFix"/>
<feBlend mode="normal" in="SourceGraphic" in2="BackgroundImageFix" result="shape"/>
<feGaussianBlur stdDeviation="4.38292" result="effect1_foregroundBlur_136_8787"/>
</filter>
<linearGradient id="paint0_linear_136_8787" x1="47.469" y1="71.8527" x2="27.574" y2="51.9577" gradientUnits="userSpaceOnUse">
<stop stop-color="#B5C0FF"/>
<stop offset="1" stop-color="#8496F6"/>
</linearGradient>
<linearGradient id="paint1_linear_136_8787" x1="64.0685" y1="46.5166" x2="64.0685" y2="73.2524" gradientUnits="userSpaceOnUse">
<stop stop-color="#B5C0FF"/>
<stop offset="1" stop-color="#6176E6"/>
</linearGradient>
<linearGradient id="paint2_linear_136_8787" x1="92.3659" y1="87.4966" x2="92.3659" y2="108.754" gradientUnits="userSpaceOnUse">
<stop stop-color="#99B6FF"/>
<stop offset="1" stop-color="#2563FF"/>
</linearGradient>
</defs>
</svg>
