<svg width="48" height="32" viewBox="0 0 48 32" fill="none" xmlns="http://www.w3.org/2000/svg">
<path d="M18.8691 7.61328H29.1368V24.3833H18.8691V7.61328Z" fill="#FF5F00"/>
<path d="M19.9252 15.9991C19.9239 14.3842 20.29 12.7903 20.9956 11.3379C21.7013 9.88541 22.7282 8.61251 23.9984 7.6155C22.4252 6.37907 20.5358 5.6102 18.5462 5.39678C16.5566 5.18335 14.5471 5.53398 12.7474 6.40859C10.9476 7.2832 9.43026 8.64651 8.36868 10.3427C7.3071 12.0389 6.74414 13.9995 6.74414 16.0005C6.74414 18.0015 7.3071 19.9621 8.36868 21.6583C9.43026 23.3545 10.9476 24.7178 12.7474 25.5924C14.5471 26.467 16.5566 26.8177 18.5462 26.6042C20.5358 26.3908 22.4252 25.6219 23.9984 24.3855C22.7278 23.3882 21.7007 22.1148 20.995 20.6618C20.2893 19.2088 19.9234 17.6143 19.9252 15.999V15.9991Z" fill="#EB001B"/>
<path d="M40.2356 22.61V22.2664H40.3837V22.1953H40.0312V22.2664H40.1705V22.6101L40.2356 22.61ZM40.9199 22.61V22.1954H40.8133L40.6889 22.4916L40.5644 22.1953H40.4578V22.61H40.5348V22.296L40.6504 22.5657H40.7304L40.8459 22.296V22.61H40.9199Z" fill="#F79E1B"/>
<path d="M41.2559 15.9994C41.2559 18.0005 40.6928 19.9613 39.631 21.6575C38.5692 23.3538 37.0516 24.717 35.2517 25.5915C33.4517 26.466 31.442 26.8164 29.4523 26.6027C27.4626 26.3889 25.5732 25.6197 24 24.3829C25.2698 23.385 26.2963 22.1117 27.0022 20.6592C27.7081 19.2067 28.0748 17.6128 28.0748 15.9979C28.0748 14.3829 27.7081 12.789 27.0022 11.3365C26.2963 9.88399 25.2698 8.61075 24 7.61286C25.5732 6.37602 27.4626 5.60677 29.4523 5.39304C31.442 5.1793 33.4517 5.52971 35.2517 6.4042C37.0516 7.27869 38.5693 8.64198 39.631 10.3382C40.6928 12.0345 41.2559 13.9952 41.2559 15.9964V15.9994Z" fill="#F79E1B"/>
</svg>
