<svg width="122" height="118" viewBox="0 0 122 118" fill="none" xmlns="http://www.w3.org/2000/svg">
<path d="M6.67546 16.9162C7.0629 18.1102 6.41048 19.3916 5.21999 19.7792C4.0295 20.1668 2.74961 19.5145 2.36217 18.3205C1.97473 17.1265 2.62715 15.8451 3.81764 15.4575C5.00813 15.07 6.28802 15.7223 6.67546 16.9162Z" fill="#EAEEF9" stroke="#E8EBEA"/>
<path d="M23.9594 1.88512C23.9594 2.65087 23.3398 3.27023 22.5773 3.27023C21.8148 3.27023 21.1953 2.65087 21.1953 1.88512C21.1953 1.11936 21.8148 0.5 22.5773 0.5C23.3398 0.5 23.9594 1.11936 23.9594 1.88512Z" fill="url(#paint0_linear_15_3591)" stroke="#E8EBEA"/>
<path d="M119.5 50.6761C119.5 51.4419 118.88 52.0612 118.118 52.0612C117.355 52.0612 116.736 51.4419 116.736 50.6761C116.736 49.9104 117.355 49.291 118.118 49.291C118.88 49.291 119.5 49.9104 119.5 50.6761Z" fill="url(#paint1_linear_15_3591)" stroke="#E8EBEA"/>
<path d="M6.24599 91.4837C6.24599 92.2495 5.62647 92.8689 4.86396 92.8689C4.10146 92.8689 3.48193 92.2495 3.48193 91.4837C3.48193 90.718 4.10146 90.0986 4.86396 90.0986C5.62647 90.0986 6.24599 90.718 6.24599 91.4837Z" fill="url(#paint2_linear_15_3591)" stroke="#E8EBEA"/>
<path d="M115.565 22.0921C116.946 23.6061 116.841 25.9549 115.329 27.3383C113.818 28.7218 111.473 28.6161 110.092 27.1021C108.71 25.5881 108.816 23.2393 110.327 21.8559C111.839 20.4724 114.184 20.5781 115.565 22.0921Z" fill="#EAEEF9" stroke="#E8EBEA"/>
<path d="M115.728 6.64759C116.202 7.16698 116.165 7.97271 115.647 8.44724C115.129 8.92177 114.324 8.88557 113.85 8.36618C113.377 7.84678 113.413 7.04105 113.931 6.56653C114.45 6.092 115.254 6.12819 115.728 6.64759Z" fill="#EAEEF9" stroke="#E8EBEA"/>
<path d="M27.0424 109.613H20.2022L28.7232 87.1692L37.2672 91.0502L27.0424 109.613Z" fill="#CED7E2" stroke="#E8EBEA"/>
<path d="M77.562 109.613L67.3372 91.0502L75.8812 87.1692L84.4022 109.613H77.562Z" fill="#CED7E2" stroke="#E8EBEA"/>
<path d="M98.6867 52.7832C98.6867 76.2087 79.7279 95.1973 56.3429 95.1973C32.9578 95.1973 13.999 76.2087 13.999 52.7832C13.999 29.3578 32.9578 10.3691 56.3429 10.3691C79.7279 10.3691 98.6867 29.3578 98.6867 52.7832Z" fill="#CED7E2" stroke="#E8EBEA"/>
<path d="M94.7018 52.7832C94.7018 76.2087 75.7431 95.1973 52.358 95.1973C28.9729 95.1973 10.0142 76.2087 10.0142 52.7832C10.0142 29.3578 28.9729 10.3691 52.358 10.3691C75.7431 10.3691 94.7018 29.3578 94.7018 52.7832Z" fill="#E1E5ED" stroke="#E8EBEA"/>
<path d="M84.1845 52.7834C84.1845 70.3908 69.9345 84.6631 52.3579 84.6631C34.7813 84.6631 20.5312 70.3908 20.5312 52.7834C20.5312 35.176 34.7813 20.9038 52.3579 20.9038C69.9345 20.9038 84.1845 35.176 84.1845 52.7834Z" fill="white" stroke="#E8EBEA"/>
<path d="M74.5527 52.7831C74.5527 65.0624 64.6149 75.0153 52.3577 75.0153C40.1004 75.0153 30.1626 65.0624 30.1626 52.7831C30.1626 40.5037 40.1004 30.5508 52.3577 30.5508C64.6149 30.5508 74.5527 40.5037 74.5527 52.7831Z" fill="#E1E5ED" stroke="#E8EBEA"/>
<path d="M64.3676 52.7834C64.3676 59.4284 58.9898 64.8139 52.3576 64.8139C45.7255 64.8139 40.3477 59.4284 40.3477 52.7834C40.3477 46.1384 45.7255 40.7529 52.3576 40.7529C58.9898 40.7529 64.3676 46.1384 64.3676 52.7834Z" fill="white" stroke="#E8EBEA"/>
<g filter="url(#filter0_d_15_3591)">
<path d="M113.247 83.1667C113.247 84.8301 113.026 86.4934 112.694 88.0459C112.472 89.0439 112.14 89.931 111.808 90.8181C109.704 96.3625 105.276 100.798 99.7407 102.905C99.2979 103.016 98.9658 103.238 98.523 103.349C96.4195 104.014 94.3161 104.347 91.9912 104.347C80.2562 104.347 70.7354 94.8101 70.7354 83.0559C70.7354 71.3016 80.2562 61.7651 91.9912 61.7651C103.726 61.876 113.247 71.4125 113.247 83.1667Z" fill="url(#paint3_linear_15_3591)"/>
<path d="M98.4015 102.864L98.3867 102.867L98.3722 102.872C96.3177 103.522 94.2651 103.847 91.9912 103.847C80.5331 103.847 71.2354 94.5347 71.2354 83.0559C71.2354 71.5778 80.5318 62.2664 91.9888 62.2651C103.45 62.3747 112.747 71.6896 112.747 83.1667C112.747 84.7863 112.531 86.4131 112.205 87.9393C111.992 88.897 111.673 89.7519 111.34 90.6417C109.29 96.0436 104.978 100.368 99.589 102.428C99.3412 102.493 99.1264 102.585 98.9462 102.662L98.9346 102.667C98.7368 102.752 98.5783 102.819 98.4015 102.864Z" stroke="#E8EBEA"/>
</g>
<path d="M88.3963 90.3949L88.379 90.3733L88.3595 90.3537L83.4883 85.4746C82.6868 84.6718 82.6868 83.4355 83.4883 82.6326C84.2894 81.8303 85.5222 81.8303 86.3233 82.6326L89.4231 85.7375L89.7769 86.092L90.1308 85.7375L98.9874 76.8664C99.7884 76.0641 101.021 76.0641 101.822 76.8664C102.624 77.6692 102.624 78.9055 101.822 79.7083L91.1944 90.3537L91.1749 90.3733L91.1576 90.3949C90.8354 90.7983 90.3359 90.9832 89.7769 90.9832C89.218 90.9832 88.7185 90.7983 88.3963 90.3949Z" fill="url(#paint4_linear_15_3591)" stroke="#F2E8F6"/>
<mask id="path-17-inside-1_15_3591" fill="white">
<path d="M30.6587 45.2425L52.6895 51.0088C53.6859 51.2305 54.2395 52.3394 54.018 53.3374C53.7966 54.3354 52.6895 54.8899 51.6932 54.6681L3.31396 42.0267C2.3176 41.805 1.76406 40.6961 1.98547 39.6981C2.20689 38.7001 3.31396 38.1456 4.31033 38.3674L20.9165 42.6921"/>
</mask>
<path d="M30.6587 45.2425L52.6895 51.0088C53.6859 51.2305 54.2395 52.3394 54.018 53.3374C53.7966 54.3354 52.6895 54.8899 51.6932 54.6681L3.31396 42.0267C2.3176 41.805 1.76406 40.6961 1.98547 39.6981C2.20689 38.7001 3.31396 38.1456 4.31033 38.3674L20.9165 42.6921" fill="#1C3754"/>
<path d="M52.6895 51.0088L52.4363 51.9762L52.4542 51.9808L52.4723 51.9849L52.6895 51.0088ZM51.6932 54.6681L51.4404 55.6356L51.4581 55.6402L51.4759 55.6442L51.6932 54.6681ZM3.31396 42.0267L3.56677 41.0592L3.54908 41.0546L3.53123 41.0506L3.31396 42.0267ZM4.31033 38.3674L4.56235 37.3997L4.54505 37.3952L4.5276 37.3913L4.31033 38.3674ZM30.4055 46.2099L52.4363 51.9762L52.9427 50.0413L30.9119 44.2751L30.4055 46.2099ZM52.4723 51.9849C52.8128 52.0607 53.1714 52.5367 53.0418 53.1208L54.9943 53.554C55.3075 52.1421 54.559 50.4004 52.9068 50.0326L52.4723 51.9849ZM53.0418 53.1208C52.9655 53.4646 52.4898 53.8209 51.9104 53.692L51.4759 55.6442C52.8893 55.9588 54.6277 55.2062 54.9943 53.554L53.0418 53.1208ZM51.946 53.7006L3.56677 41.0592L3.06116 42.9942L51.4404 55.6356L51.946 53.7006ZM3.53123 41.0506C3.19072 40.9748 2.83215 40.4988 2.96174 39.9147L1.00921 39.4815C0.69597 40.8934 1.44448 42.6351 3.0967 43.0028L3.53123 41.0506ZM2.96174 39.9147C3.03801 39.5708 3.51368 39.2145 4.09306 39.3435L4.5276 37.3913C3.11425 37.0767 1.37576 37.8293 1.00921 39.4815L2.96174 39.9147ZM4.05831 39.3351L20.6644 43.6598L21.1685 41.7243L4.56235 37.3997L4.05831 39.3351Z" fill="#E8EBEA" mask="url(#path-17-inside-1_15_3591)"/>
<path d="M19.9062 36.6338L19.9062 36.634L19.9184 36.6368C21.2006 36.9332 22.4125 37.9369 23.0156 39.1452L23.567 40.2498L25.7791 44.9028L25.779 44.9028L25.7833 44.9114C26.1262 45.5984 25.941 46.4142 25.3011 46.8148L25.2928 46.82L25.2847 46.8255L20.0814 50.3739L20.075 50.3783L20.0687 50.3829C18.9672 51.1853 17.4687 51.4787 16.1928 51.0854L16.1817 51.082L16.1704 51.0791L1.1246 47.2006C0.417016 46.9818 0.296475 46.1767 0.837597 45.7602L7.24685 41.4435L7.60863 41.1998L7.4163 40.8083L3.98437 33.8223L3.97888 33.8111L3.97284 33.8002C3.79709 33.4834 3.85718 33.2084 4.01558 33.0195C4.18156 32.8216 4.48738 32.6851 4.86438 32.7564L19.9062 36.6338Z" fill="url(#paint5_linear_15_3591)" stroke="#E8EBEA"/>
<path d="M2.20703 111H101.844" stroke="#E8EBEA" stroke-width="2" stroke-miterlimit="10" stroke-linecap="round" stroke-linejoin="round"/>
<defs>
<filter id="filter0_d_15_3591" x="62.7354" y="58.7651" width="58.5117" height="58.5815" filterUnits="userSpaceOnUse" color-interpolation-filters="sRGB">
<feFlood flood-opacity="0" result="BackgroundImageFix"/>
<feColorMatrix in="SourceAlpha" type="matrix" values="0 0 0 0 0 0 0 0 0 0 0 0 0 0 0 0 0 0 127 0" result="hardAlpha"/>
<feOffset dy="5"/>
<feGaussianBlur stdDeviation="4"/>
<feColorMatrix type="matrix" values="0 0 0 0 0.490196 0 0 0 0 0.113725 0 0 0 0 0.658824 0 0 0 0.12 0"/>
<feBlend mode="normal" in2="BackgroundImageFix" result="effect1_dropShadow_15_3591"/>
<feBlend mode="normal" in="SourceGraphic" in2="effect1_dropShadow_15_3591" result="shape"/>
</filter>
<linearGradient id="paint0_linear_15_3591" x1="20.7475" y1="1.83266" x2="24.4068" y2="1.83266" gradientUnits="userSpaceOnUse">
<stop stop-color="#83A6FF"/>
<stop offset="1" stop-color="#5A78FF"/>
</linearGradient>
<linearGradient id="paint1_linear_15_3591" x1="116.29" y1="50.6701" x2="119.949" y2="50.6701" gradientUnits="userSpaceOnUse">
<stop stop-color="#FF66A9"/>
<stop offset="1" stop-color="#F53689"/>
</linearGradient>
<linearGradient id="paint2_linear_15_3591" x1="3.07172" y1="91.4958" x2="6.73105" y2="91.4958" gradientUnits="userSpaceOnUse">
<stop stop-color="#FF66A9"/>
<stop offset="1" stop-color="#F53689"/>
</linearGradient>
<linearGradient id="paint3_linear_15_3591" x1="94.7924" y1="61.7651" x2="105.07" y2="54.4325" gradientUnits="userSpaceOnUse">
<stop stop-color="#3365E3"/>
<stop offset="1" stop-color="#001C62"/>
</linearGradient>
<linearGradient id="paint4_linear_15_3591" x1="94.0085" y1="75.7646" x2="98.0111" y2="72.0275" gradientUnits="userSpaceOnUse">
<stop stop-color="#3365E3"/>
<stop offset="1" stop-color="#001C62"/>
</linearGradient>
<linearGradient id="paint5_linear_15_3591" x1="-0.00704561" y1="41.9956" x2="26.5072" y2="41.9956" gradientUnits="userSpaceOnUse">
<stop stop-color="#FF66A9"/>
<stop offset="1" stop-color="#F53689"/>
</linearGradient>
</defs>
</svg>
