<svg width="48" height="16" viewBox="0 0 48 16" fill="none" xmlns="http://www.w3.org/2000/svg">
<path d="M24.8244 4.95525C24.7971 7.1145 26.7488 8.31938 28.2189 9.03581C29.7294 9.77081 30.2368 10.2422 30.2308 10.8996C30.2196 11.9055 29.0259 12.3495 27.909 12.3668C25.9603 12.3969 24.8272 11.8406 23.9265 11.4199L23.2245 14.7047C24.1283 15.1211 25.8017 15.4843 27.537 15.5003C31.6104 15.5003 34.2754 13.4895 34.2898 10.3719C34.3058 6.41531 28.8171 6.19631 28.8546 4.42781C28.8675 3.89156 29.3792 3.31931 30.5004 3.17381C31.0554 3.10031 32.5875 3.04406 34.3245 3.84394L35.0062 0.665813C34.0721 0.325688 32.8716 0 31.3768 0C27.5428 0 24.8462 2.03812 24.8244 4.95525ZM41.5571 0.27375C40.8133 0.27375 40.1865 0.707624 39.9067 1.37344L34.0881 15.2668H38.1585L38.9685 13.0283H43.9425L44.4124 15.2668H48L44.8693 0.27375H41.5571ZM42.1266 4.32394L43.3013 9.954H40.0841L42.1266 4.32394ZM19.8892 0.273937L16.6807 15.2666H20.5596L23.7666 0.273562L19.8892 0.273937ZM14.1512 0.273562L10.1139 10.4786L8.48081 1.80169C8.28919 0.833063 7.53244 0.27375 6.69206 0.27375H0.0924375L0 0.709125C1.35487 1.00312 2.89425 1.47731 3.82687 1.98469C4.39762 2.29463 4.56038 2.56556 4.74788 3.30206L7.84106 15.2668H11.94L18.2243 0.27375L14.1512 0.273562Z" fill="url(#paint0_linear_1715_103058)"/>
<defs>
<linearGradient id="paint0_linear_1715_103058" x1="22.0675" y1="15.8112" x2="22.5162" y2="-0.107791" gradientUnits="userSpaceOnUse">
<stop stop-color="#222357"/>
<stop offset="1" stop-color="#254AA5"/>
</linearGradient>
</defs>
</svg>
